<svg width="51" height="64" viewBox="0 0 51 64" fill="none" xmlns="http://www.w3.org/2000/svg">
<path d="M43.9582 60.5623C43.9582 61.8714 35.731 62.9326 25.5824 62.9326C15.4336 62.9326 7.20654 61.8714 7.20654 60.5623C7.20654 59.2534 15.4336 58.1923 25.5824 58.1923C35.731 58.1923 43.9582 59.2534 43.9582 60.5623Z" fill="#AFAFAF" fill-opacity="0.5"/>
<path d="M46.044 16.8702C46.8323 16.3562 46.772 15.1298 45.9257 14.7271C43.1868 13.4234 41.4053 10.3613 37.8687 6.39741C33.7486 1.7796 27.0055 1.95936 25.9824 2.01506C24.9591 1.95936 18.216 1.7796 14.0959 6.39741C10.5594 10.3613 8.77789 13.4234 6.03893 14.7271C5.19267 15.1298 5.13233 16.3562 5.92062 16.8702L12.8291 21.3745L25.9824 17.9421L39.1356 21.3745L46.044 16.8702Z" fill="#2E2227"/>
<path d="M43.6903 27.722C42.6651 22.4557 39.4184 17.6008 35.0513 16.3976C32.8065 15.7792 30.4659 16.1349 28.1825 16.4935C27.4518 16.6081 26.674 16.7552 26.0248 17.1399C25.3756 16.7552 24.5977 16.6081 23.867 16.4935C21.5838 16.1349 19.243 15.7792 16.9983 16.3976C12.6312 17.6008 9.38447 22.4557 8.35919 27.722C7.33409 32.9884 8.22137 38.5586 9.81982 43.6122C11.2799 48.2281 13.4262 51.1365 16.7378 54.038C19.3848 56.3571 22.886 56.7811 26.0248 55.9426C29.1635 56.7811 32.6647 56.3571 35.3118 54.038C38.6233 51.1365 40.7698 48.2281 42.2297 43.6122C43.8283 38.5586 44.7156 32.9884 43.6903 27.722Z" fill="#F2591D"/>
<path d="M26.0245 55.7421C26.0408 55.7421 26.0572 55.744 26.073 55.7484C27.0431 56.0074 28.0261 56.1388 28.9948 56.1388C31.3621 56.1388 33.5031 55.3594 35.1865 53.8849C38.7137 50.7943 40.701 47.7999 42.0455 43.5498C43.9054 37.6697 44.3949 32.3578 43.5 27.7617C42.4138 22.1816 38.9985 17.6928 35.0013 16.5918C34.1953 16.3697 33.329 16.2617 32.3531 16.2617C30.9515 16.2617 29.4958 16.4904 28.2113 16.6919C27.4948 16.8046 26.7432 16.9455 26.1206 17.3142C26.0612 17.3497 25.9881 17.3497 25.9283 17.3142C25.3061 16.9455 24.5543 16.8046 23.8378 16.6919C22.5533 16.4904 21.0976 16.2617 19.6962 16.2617C18.7203 16.2617 17.854 16.3697 17.048 16.5918C13.0508 17.6928 9.63547 22.1816 8.54911 27.7617C7.65418 32.3576 8.14385 37.6695 10.0037 43.5498C11.3482 47.7999 13.3354 50.7943 16.8628 53.8849C18.546 55.3594 20.687 56.1388 23.0542 56.1388C24.0228 56.1388 25.006 56.0074 25.9761 55.7484C25.9919 55.744 26.0083 55.7421 26.0245 55.7421ZM28.995 56.5403C28.9948 56.5403 28.995 56.5403 28.9948 56.5403C28.0097 56.5403 27.0105 56.4091 26.0245 56.15C25.0385 56.4091 24.0394 56.5403 23.0542 56.5403C20.5942 56.5403 18.3666 55.728 16.6125 54.1913C13.0254 51.0486 11.004 48.0016 9.63547 43.6748C7.75426 37.7277 7.26094 32.347 8.16918 27.6824C9.28398 21.956 12.812 17.3431 16.9483 16.2038C17.7873 15.9728 18.686 15.8603 19.6962 15.8603C21.1267 15.8603 22.5979 16.0912 23.8958 16.2952C24.6135 16.4079 25.3666 16.5487 26.0245 16.9107C26.6827 16.5487 27.4358 16.4079 28.1533 16.2952C29.4512 16.0912 30.9224 15.8603 32.3531 15.8603C33.3631 15.8603 34.262 15.9728 35.101 16.2038C39.2373 17.3433 42.7653 21.9562 43.8799 27.6824C44.7881 32.3472 44.2948 37.7279 42.4136 43.6748C41.0452 48.0016 39.0238 51.0486 35.4368 54.1913C33.6826 55.728 31.455 56.5403 28.995 56.5403Z" fill="#292625"/>
<path d="M43.1981 38.0268C42.9727 37.398 42.4313 36.9694 41.8115 36.9363C41.8116 36.9467 42.315 36.7762 42.3729 36.7439C42.5862 36.6255 42.7709 36.4526 42.914 36.2437C43.1729 35.8657 43.2717 35.3854 43.2179 34.9203C43.1142 34.0236 42.3879 33.3249 41.5522 33.371C41.5518 33.3665 41.5513 33.3621 41.5508 33.3578C42.4313 33.1612 42.9363 32.192 42.7204 31.2564C42.6231 30.835 42.409 30.4637 42.0809 30.2109C41.8935 30.0665 41.6762 29.973 41.4492 29.936C41.3779 29.9245 40.7785 29.9518 40.7856 29.9728C41.5976 29.5636 41.8969 28.4904 41.4846 27.6343C41.074 26.7819 40.137 26.3941 39.3398 26.8777C39.3445 26.8856 39.6849 26.4515 39.7182 26.3903C39.8281 26.1879 39.893 25.9628 39.9158 25.7292C39.9616 25.2581 39.8099 24.7748 39.5279 24.4173C38.9529 23.6887 37.9621 23.5399 37.2844 24.1992C37.2866 24.2015 37.5205 23.737 37.5411 23.673C37.6161 23.4392 37.6381 23.1922 37.6126 22.9466C37.5639 22.4791 37.3247 22.0537 36.9858 21.7676C36.2874 21.1713 35.2698 21.2727 34.7398 22.0708C34.7458 22.075 34.8831 21.5276 34.8891 21.4564C34.911 21.2026 34.8753 20.9474 34.7905 20.7102C34.6416 20.2935 34.3362 19.9591 33.9676 19.7684C33.1676 19.3492 32.1947 19.687 31.8342 20.5888C31.8361 20.5893 31.8689 20.0631 31.8627 19.9953C31.8406 19.7508 31.7662 19.5185 31.6497 19.3086C31.4386 18.9281 31.0859 18.6585 30.695 18.5416C29.8132 18.2778 28.8831 18.8275 28.705 19.8278C28.7112 19.8286 28.6238 19.2701 28.6018 19.2023C28.5298 18.9821 28.4142 18.7842 28.2638 18.6181C27.9597 18.282 27.5264 18.0888 27.0921 18.0992C26.6513 18.1097 26.2345 18.2769 25.9228 18.6237C25.773 18.7904 25.6586 18.9914 25.5877 19.2115C25.5659 19.2795 25.4813 19.8378 25.4873 19.8371C25.3097 18.8662 24.4416 18.3403 23.5785 18.5363C23.1782 18.6273 22.8123 18.8945 22.583 19.2623C22.4563 19.4657 22.3715 19.6949 22.3394 19.9387C22.3296 20.0134 22.3518 20.6192 22.3618 20.6152C21.9961 19.7132 21.043 19.4005 20.24 19.7969C19.8473 19.9908 19.5339 20.3605 19.3897 20.8027C19.3212 21.0129 19.292 21.2345 19.3073 21.4572C19.3124 21.5323 19.4533 22.1197 19.463 22.1131C18.9279 21.3161 17.9344 21.2344 17.2288 21.8089C16.8832 22.0905 16.6498 22.5248 16.5961 22.9908C16.5705 23.2126 16.5859 23.4362 16.6449 23.6505C16.6648 23.7225 16.9198 24.264 16.9282 24.2551C16.247 23.5992 15.2594 23.7553 14.6846 24.4845C14.1074 25.2166 14.1907 26.3395 14.8928 26.9332C14.895 26.9294 14.433 26.7625 14.3719 26.7519C14.1441 26.7128 13.9076 26.7308 13.6883 26.8093C13.2677 26.9602 12.9467 27.2899 12.743 27.713C12.3307 28.5699 12.6451 29.645 13.4551 30.0481C13.462 30.0276 12.8615 30.003 12.7904 30.0149C12.5635 30.0531 12.3465 30.1475 12.1598 30.2932C11.8331 30.5487 11.6224 30.9213 11.5252 31.3427C11.4129 31.8289 11.49 32.3597 11.7568 32.7711C11.8729 32.952 12.0226 33.1059 12.1952 33.2215C12.2481 33.2568 12.7035 33.4584 12.7042 33.4526C11.919 33.4109 11.2177 34.0298 11.0633 34.8646C10.8755 35.8789 11.4886 36.8999 12.4543 37.0041C12.4544 36.9936 11.9454 37.1372 11.8864 37.1661C11.6895 37.2622 11.511 37.4037 11.3665 37.5783C11.0771 37.9278 10.9428 38.4003 10.965 38.8659C10.9865 39.3161 11.1455 39.739 11.4394 40.0604C11.5918 40.2269 11.7792 40.3532 11.9817 40.4333C12.0475 40.4592 12.6439 40.5657 12.6404 40.5402C11.736 40.7488 11.2676 41.7186 11.4771 42.6703C11.5732 43.1074 11.8417 43.5047 12.1925 43.7367C12.3926 43.8693 12.6147 43.9501 12.849 43.9652C12.9139 43.9694 13.5007 43.8938 13.4898 43.8666C12.6262 44.3276 12.4349 45.445 12.9283 46.3007C13.1468 46.6789 13.5144 46.9718 13.9178 47.0615C14.1373 47.1102 14.3645 47.1081 14.5812 47.0447C14.6458 47.0258 15.2127 46.7278 15.1861 46.6969C14.5276 47.432 14.6718 48.5862 15.4149 49.1818C16.1496 49.7707 17.1743 49.6244 17.6611 48.7505C17.6494 48.7437 17.5331 49.282 17.5287 49.346C17.5118 49.5996 17.5488 49.8594 17.6443 50.0921C17.8213 50.5237 18.1537 50.8591 18.56 51.0207C19.3941 51.3723 20.3406 50.9478 20.6347 50.0094C20.6292 50.0077 20.6314 50.5415 20.6416 50.6074C20.6795 50.8525 20.769 51.0834 20.8972 51.2883C21.1258 51.6529 21.4901 51.8874 21.88 51.9869C22.7594 52.2114 23.6599 51.6115 23.8299 50.6351C23.8292 50.6351 23.9043 51.1531 23.9242 51.218C23.9957 51.4518 24.114 51.665 24.2664 51.8462C24.5526 52.1865 24.9626 52.3702 25.3814 52.3976C26.2442 52.461 27.0338 51.7688 27.0972 50.8149C27.1003 50.8149 27.2141 51.2873 27.2385 51.3472C27.3246 51.5579 27.4513 51.7477 27.6078 51.9027C27.9431 52.2346 28.3927 52.3944 28.8424 52.356C29.2426 52.322 29.6345 52.1508 29.9162 51.833C30.0704 51.6589 30.192 51.4493 30.2684 51.2222C30.2923 51.151 30.3866 50.5588 30.3778 50.56C30.5561 51.4844 31.4096 52.0883 32.2605 51.8974C32.6539 51.8092 33.0287 51.5887 33.2734 51.2346C33.4099 51.0371 33.5069 50.8064 33.5539 50.5645C33.5681 50.4914 33.584 49.8817 33.5714 49.8857C33.8746 50.8164 34.8191 51.2337 35.6494 50.8804C36.0366 50.7309 36.3578 50.4082 36.5374 50.0067C36.6384 49.7811 36.6885 49.5354 36.6834 49.2841C36.6819 49.2131 36.5693 48.6064 36.5518 48.6168C37.0327 49.4803 38.0578 49.6436 38.7914 49.059C39.5341 48.4671 39.6976 47.3296 39.0488 46.5809C39.0349 46.5966 39.488 46.877 39.5419 46.8991C39.762 46.9884 39.9991 47.0092 40.2312 46.9758C40.6731 46.9121 41.0614 46.6106 41.3103 46.2148C41.826 45.3723 41.6233 44.2388 40.7736 43.7741C40.767 43.7898 41.2702 43.8808 41.3283 43.881C41.5664 43.8831 41.7989 43.8172 42.008 43.6935C42.3934 43.4658 42.685 43.0555 42.7919 42.59C43.0101 41.6391 42.5343 40.665 41.6324 40.4569C41.6273 40.4937 42.2885 40.3531 42.3589 40.321C42.6216 40.2012 42.8438 40.0022 43.0079 39.7492C43.3275 39.2564 43.398 38.5885 43.1981 38.0268C43.2781 38.2515 43.1175 37.8021 43.1981 38.0268Z" fill="#F7A80E"/>
<path d="M40.5923 34.7937C40.4036 34.2669 39.95 33.9078 39.4306 33.88C39.4308 33.8887 39.8525 33.7458 39.9012 33.719C40.0796 33.6198 40.2344 33.4748 40.3544 33.2998C40.5711 32.9831 40.6539 32.5806 40.6088 32.1912C40.5221 31.4399 39.9136 30.8546 39.2135 30.8931C39.2131 30.8895 39.2128 30.8857 39.2122 30.8821C39.9498 30.7175 40.373 29.9056 40.1921 29.1218C40.1106 28.7687 39.9312 28.4575 39.6563 28.2458C39.4993 28.1248 39.3172 28.0466 39.1271 28.0154C39.0675 28.0058 38.5654 28.0289 38.5712 28.0462C39.2514 27.7035 39.5023 26.8043 39.1568 26.0872C38.813 25.3731 38.0278 25.0483 37.3598 25.4533C37.3638 25.4599 37.6491 25.0965 37.677 25.0451C37.7691 24.8755 37.8234 24.6869 37.8426 24.4911C37.8808 24.0965 37.7538 23.6916 37.5175 23.3922C37.0359 22.7817 36.2058 22.6571 35.6381 23.2094C35.6399 23.2113 35.8359 22.8221 35.8531 22.7685C35.9158 22.5729 35.9344 22.3657 35.913 22.1601C35.8722 21.7683 35.6718 21.412 35.3878 21.1724C34.8028 20.6728 33.9502 20.7577 33.5062 21.4263C33.5113 21.4297 33.6264 20.9713 33.6315 20.9116C33.6497 20.699 33.6198 20.4851 33.5489 20.2866C33.424 19.9373 33.1683 19.6571 32.8594 19.4974C32.1893 19.1463 31.374 19.4294 31.0721 20.1847C31.0737 20.1852 31.1011 19.7443 31.096 19.6875C31.0774 19.4828 31.0152 19.2881 30.9175 19.1123C30.7407 18.7934 30.4453 18.5676 30.1177 18.4698C29.3788 18.2489 28.5997 18.7092 28.4505 19.5474C28.4556 19.548 28.3826 19.0801 28.3641 19.0232C28.3038 18.8387 28.207 18.6732 28.0808 18.5338C27.8262 18.2523 27.4632 18.0904 27.0993 18.0991C26.73 18.108 26.381 18.2479 26.1198 18.5385C25.9943 18.6783 25.8984 18.8465 25.839 19.031C25.8208 19.0878 25.7499 19.5557 25.755 19.5549C25.606 18.7417 24.8788 18.301 24.1558 18.4653C23.8205 18.5415 23.5139 18.7653 23.3217 19.0735C23.2156 19.244 23.1446 19.436 23.1178 19.6401C23.1095 19.7028 23.1281 20.2102 23.1365 20.2069C22.8301 19.4511 22.0318 19.1894 21.3591 19.5213C21.0298 19.6837 20.7675 19.9934 20.6466 20.364C20.5892 20.54 20.5648 20.7258 20.5775 20.9124C20.5819 20.9753 20.6998 21.4673 20.708 21.4618C20.2598 20.794 19.4274 20.7256 18.8363 21.2069C18.5468 21.4428 18.3512 21.8066 18.3062 22.1971C18.2848 22.3829 18.2976 22.5702 18.3472 22.7498C18.3638 22.81 18.5774 23.2638 18.5845 23.2562C18.0137 22.7067 17.1864 22.8376 16.7048 23.4484C16.2213 24.0617 16.2911 25.0026 16.8793 25.5C16.8811 25.4968 16.4941 25.3568 16.443 25.348C16.2521 25.3153 16.054 25.3302 15.8702 25.3961C15.5178 25.5224 15.2489 25.7987 15.0783 26.1531C14.7328 26.871 14.9962 27.7717 15.675 28.1095C15.6806 28.0923 15.1776 28.0715 15.118 28.0815C14.9279 28.1134 14.7461 28.1926 14.5897 28.3147C14.316 28.5287 14.1396 28.8408 14.0581 29.1939C13.964 29.6012 14.0286 30.046 14.2521 30.3908C14.3492 30.5423 14.4748 30.6712 14.6194 30.7679C14.6637 30.7975 15.0453 30.9663 15.0458 30.9616C14.388 30.9267 13.8005 31.4452 13.671 32.1444C13.5137 32.9943 14.0275 33.8496 14.8364 33.9369C14.8365 33.928 14.4101 34.0483 14.3607 34.0725C14.1957 34.1531 14.0461 34.2717 13.925 34.4178C13.6827 34.7107 13.5701 35.1064 13.5886 35.4965C13.6067 35.8738 13.74 36.228 13.9863 36.4973C14.1139 36.6368 14.2708 36.7426 14.4406 36.8096C14.4956 36.8313 14.9953 36.9204 14.9922 36.8993C14.2346 37.074 13.8422 37.8866 14.0176 38.6838C14.0982 39.05 14.3232 39.3827 14.617 39.5772C14.7848 39.6882 14.9707 39.756 15.167 39.7686C15.2214 39.7722 15.7131 39.7088 15.7038 39.6861C14.9804 40.0722 14.8201 41.0084 15.2336 41.7252C15.4166 42.042 15.7245 42.2875 16.0625 42.3625C16.2465 42.4034 16.4366 42.4015 16.6182 42.3485C16.6723 42.3326 17.1473 42.083 17.125 42.0569C16.5734 42.6729 16.6942 43.6398 17.3166 44.1389C17.9323 44.6321 18.7905 44.5095 19.1984 43.7775C19.1887 43.7718 19.0912 44.2229 19.0877 44.2763C19.0733 44.489 19.1043 44.7065 19.1843 44.9015C19.3327 45.2631 19.6111 45.5439 19.9517 45.6795C20.6502 45.9738 21.4433 45.6183 21.6896 44.832C21.685 44.8307 21.6868 45.2778 21.6954 45.3332C21.7271 45.5384 21.802 45.732 21.9096 45.9034C22.101 46.2091 22.4062 46.4053 22.7329 46.4888C23.4696 46.6768 24.224 46.1744 24.3665 45.3564C24.3658 45.3564 24.4289 45.7903 24.4455 45.8447C24.5053 46.0405 24.6044 46.2191 24.7321 46.3709C24.9718 46.6561 25.3154 46.8099 25.6662 46.8328C26.389 46.886 27.0506 46.306 27.1037 45.5069C27.1062 45.5069 27.2016 45.9028 27.222 45.9529C27.2942 46.1294 27.4003 46.2884 27.5314 46.4181C27.8123 46.6963 28.1889 46.8301 28.5656 46.798C28.901 46.7695 29.2292 46.626 29.4653 46.3598C29.5945 46.214 29.6962 46.0386 29.7604 45.8483C29.7805 45.7884 29.8592 45.2924 29.8519 45.2933C30.0014 46.0679 30.7164 46.5737 31.4291 46.414C31.7589 46.34 32.0728 46.1551 32.2777 45.8587C32.3922 45.6933 32.4735 45.4999 32.5129 45.2971C32.5247 45.2359 32.538 44.7254 32.5275 44.7286C32.7816 45.5082 33.5728 45.8577 34.2683 45.5618C34.5926 45.4365 34.8619 45.1663 35.0123 44.83C35.0967 44.6408 35.1388 44.4351 35.1346 44.2246C35.1333 44.1649 35.0389 43.6568 35.0243 43.6655C35.4272 44.3889 36.2858 44.5258 36.9004 44.036C37.5228 43.5401 37.6597 42.5871 37.1163 41.9599C37.1046 41.9731 37.4841 42.208 37.5293 42.2265C37.7137 42.3013 37.9124 42.3186 38.1067 42.2907C38.477 42.2375 38.8024 41.9846 39.0108 41.6532C39.4428 40.9472 39.2731 39.9978 38.561 39.6085C38.5556 39.6217 38.9772 39.6978 39.0259 39.698C39.2253 39.6997 39.42 39.6446 39.5952 39.5411C39.9181 39.3502 40.1626 39.0063 40.2519 38.6164C40.4348 37.8198 40.0362 37.0039 39.2806 36.8294C39.2762 36.8602 39.8304 36.7424 39.8893 36.7156C40.1093 36.6153 40.2955 36.4486 40.4329 36.2365C40.7007 35.8238 40.7598 35.2643 40.5923 34.7937C40.6594 34.982 40.5248 34.6053 40.5923 34.7937Z" fill="#F2CC46"/>
<path d="M37.9863 31.5606C37.8341 31.1358 37.4684 30.8463 37.0496 30.8238C37.0498 30.831 37.3898 30.7156 37.429 30.6939C37.573 30.614 37.6979 30.4972 37.7945 30.3561C37.9692 30.1008 38.0361 29.7761 37.9996 29.462C37.9296 28.8563 37.4391 28.3843 36.8746 28.4154C36.8743 28.4124 36.8739 28.4096 36.8735 28.4065C37.4684 28.2738 37.8095 27.619 37.6636 26.987C37.5978 26.7022 37.4533 26.4515 37.2316 26.2808C37.1051 26.1832 36.9581 26.1201 36.805 26.095C36.7569 26.0872 36.352 26.1058 36.3567 26.1199C36.9053 25.8435 37.1074 25.1184 36.8289 24.5402C36.5516 23.9643 35.9184 23.7024 35.3799 24.0291C35.3832 24.0344 35.6131 23.7413 35.6357 23.7C35.7099 23.5631 35.7536 23.4111 35.7691 23.2532C35.8001 22.9351 35.6977 22.6086 35.507 22.3671C35.1187 21.8748 34.4494 21.7744 33.9916 22.2196C33.9931 22.2213 34.151 21.9075 34.1648 21.8643C34.2155 21.7064 34.2305 21.5395 34.2132 21.3735C34.1803 21.0578 34.0188 20.7704 33.7898 20.5771C33.318 20.1743 32.6306 20.2429 32.2727 20.7821C32.2767 20.7848 32.3695 20.4149 32.3735 20.3669C32.3883 20.1955 32.3642 20.0231 32.307 19.8629C32.2063 19.5812 32 19.3554 31.7509 19.2266C31.2106 18.9436 30.5534 19.1717 30.3098 19.7808C30.3111 19.7812 30.3332 19.4258 30.3291 19.3799C30.3142 19.2147 30.2639 19.0578 30.1853 18.916C30.0425 18.659 29.8045 18.4768 29.5403 18.3979C28.9445 18.2198 28.3163 18.591 28.196 19.2668C28.2002 19.2674 28.1413 18.89 28.1261 18.8443C28.0777 18.6955 27.9995 18.562 27.8979 18.4496C27.6925 18.2225 27.3998 18.092 27.1065 18.0992C26.8086 18.1062 26.5272 18.2191 26.3166 18.4534C26.2154 18.5659 26.1381 18.7017 26.0902 18.8505C26.0754 18.8964 26.0183 19.2734 26.0224 19.2731C25.9024 18.6173 25.3159 18.2619 24.7329 18.3943C24.4625 18.4559 24.2153 18.6364 24.0606 18.8849C23.9749 19.0221 23.9176 19.177 23.8959 19.3416C23.8892 19.3922 23.9041 19.8014 23.9111 19.7988C23.664 19.1892 23.0203 18.9781 22.4778 19.2459C22.2124 19.3767 22.0007 19.6265 21.9033 19.9254C21.857 20.0674 21.8374 20.217 21.8476 20.3675C21.851 20.4183 21.9464 20.815 21.9529 20.8106C21.5914 20.2721 20.9202 20.217 20.4436 20.6052C20.2101 20.7953 20.0526 21.0886 20.0161 21.4035C19.999 21.5533 20.0094 21.7043 20.0493 21.849C20.0626 21.8977 20.2349 22.2634 20.2405 22.2576C19.7804 21.8144 19.1133 21.92 18.725 22.4124C18.3351 22.9071 18.3914 23.6656 18.8656 24.0667C18.867 24.064 18.5551 23.9513 18.5137 23.9441C18.3599 23.9177 18.2 23.9298 18.052 23.983C17.7677 24.0848 17.551 24.3074 17.4133 24.5933C17.1348 25.1722 17.3472 25.8984 17.8945 26.1709C17.8992 26.1569 17.4934 26.1403 17.4454 26.1484C17.2921 26.1741 17.1455 26.2379 17.0194 26.3365C16.7988 26.5089 16.6564 26.7606 16.5908 27.0453C16.5149 27.3737 16.5669 27.7323 16.7472 28.0104C16.8256 28.1324 16.9268 28.2364 17.0433 28.3144C17.079 28.3384 17.3867 28.4745 17.3871 28.4705C16.8568 28.4424 16.383 28.8605 16.2787 29.4245C16.152 30.1097 16.566 30.7993 17.2183 30.8697C17.2185 30.8625 16.8746 30.9596 16.8347 30.979C16.7018 31.044 16.5811 31.1395 16.4834 31.2575C16.2882 31.4936 16.1972 31.8129 16.2123 32.1274C16.2269 32.4314 16.3343 32.7173 16.5328 32.9343C16.6356 33.0468 16.7623 33.1322 16.8993 33.1862C16.9436 33.2037 17.3464 33.2755 17.3441 33.2583C16.7332 33.3993 16.4167 34.0546 16.5581 34.6973C16.6232 34.9926 16.8044 35.2609 17.0414 35.4177C17.1767 35.5072 17.3268 35.5619 17.485 35.5721C17.5287 35.5749 17.9253 35.5238 17.9178 35.5055C17.3344 35.8168 17.2053 36.5717 17.5386 37.1497C17.6863 37.4052 17.9346 37.6031 18.2069 37.6637C18.3553 37.6965 18.5086 37.695 18.655 37.6522C18.6988 37.6395 19.0816 37.4382 19.0638 37.4173C18.6189 37.9139 18.7163 38.6935 19.2184 39.0959C19.7146 39.4937 20.4068 39.3948 20.7355 38.8045C20.7277 38.8 20.6493 39.1637 20.6463 39.2069C20.6347 39.3782 20.6598 39.5538 20.7242 39.7109C20.844 40.0024 21.0684 40.229 21.3429 40.3381C21.9063 40.5757 22.5458 40.2889 22.7443 39.655C22.7407 39.6538 22.7421 40.0143 22.7491 40.0591C22.7746 40.2245 22.8351 40.3804 22.9217 40.5188C23.0761 40.7652 23.3222 40.9235 23.5857 40.9909C24.1796 41.1423 24.788 40.7373 24.9028 40.0778C24.9023 40.0776 24.9531 40.4274 24.9666 40.4714C25.0147 40.6293 25.0946 40.7734 25.1976 40.8957C25.391 41.1257 25.668 41.2498 25.9509 41.2683C26.5337 41.3111 27.0671 40.8434 27.11 40.199C27.112 40.199 27.1889 40.5183 27.2053 40.5587C27.2635 40.7011 27.349 40.8293 27.4547 40.9339C27.6813 41.1582 27.9851 41.266 28.2888 41.2401C28.5591 41.2173 28.8238 41.1015 29.0142 40.8868C29.1184 40.7692 29.2005 40.6278 29.2521 40.4743C29.2683 40.4261 29.3319 40.026 29.3259 40.027C29.4464 40.6514 30.023 41.0592 30.5977 40.9305C30.8637 40.8708 31.1167 40.7218 31.282 40.4826C31.3741 40.3493 31.4397 40.1933 31.4715 40.03C31.4811 39.9807 31.4919 39.5689 31.4833 39.5713C31.6882 40.2001 32.3263 40.482 32.8871 40.2434C33.1485 40.1423 33.3656 39.9244 33.4869 39.6533C33.555 39.5007 33.5891 39.3349 33.5855 39.165C33.5846 39.117 33.5085 38.7073 33.4967 38.7143C33.8216 39.2975 34.514 39.408 35.0095 39.013C35.5112 38.6131 35.6216 37.8448 35.1834 37.3389C35.1741 37.3497 35.4802 37.5391 35.5166 37.554C35.6652 37.6142 35.8255 37.6282 35.9821 37.6057C36.2807 37.5627 36.543 37.3589 36.7111 37.0915C37.0595 36.5224 36.9226 35.757 36.3485 35.443C36.3441 35.4535 36.6839 35.5151 36.7233 35.5151C36.8841 35.5166 37.0411 35.472 37.1824 35.3886C37.4427 35.2347 37.6398 34.9575 37.712 34.6431C37.8593 34.0007 37.5379 33.3427 36.9286 33.2022C36.9251 33.2269 37.372 33.132 37.4195 33.1103C37.5969 33.0294 37.7471 32.895 37.858 32.7239C38.0736 32.3912 38.1214 31.9399 37.9863 31.5606C38.0403 31.7124 37.932 31.4088 37.9863 31.5606Z" fill="#F8E298"/>
<path d="M37.4751 33.7621C37.2346 33.8506 36.9677 33.8612 36.7215 33.7919C38.136 33.1646 39.4588 32.2273 40.3315 30.9148C41.2043 29.6023 41.5773 27.8824 41.0917 26.3701C41.1072 27.1029 40.8869 27.8389 40.4742 28.4345C40.934 27.1214 40.7327 25.638 40.21 24.3505C39.6874 23.0629 38.8665 21.9334 38.0539 20.8186C37.6312 20.2385 37.2011 19.6507 36.642 19.2117C36.2055 18.869 35.7013 18.6264 35.1799 18.4528C33.4607 17.8805 31.562 18.0569 29.8668 18.7017C29.3941 18.8816 28.931 19.0984 28.5168 19.3952C28.078 19.71 27.7006 20.1101 27.3705 20.5444C25.7447 22.6822 25.3058 25.5189 25.0612 28.2283C24.8621 30.4313 24.7617 32.7033 25.4222 34.8074C25.5472 35.2056 25.708 35.6093 26.0054 35.8929C26.3029 36.1767 26.7698 36.3079 27.1214 36.1012C27.4004 35.9373 27.544 35.6125 27.6957 35.3198C27.9134 34.8999 28.181 34.5077 28.4909 34.1552C28.5852 34.0479 28.6871 33.9416 28.8163 33.8856C29.2353 33.7037 29.6546 34.1089 29.9803 34.4369C30.9914 35.4545 32.3935 36.0432 33.8033 36.0423C32.8843 35.7037 32.0506 35.1193 31.4058 34.3614C32.3937 34.8297 33.4746 35.1289 34.5597 35.0742C35.6449 35.0194 36.7344 34.5853 37.4751 33.7621Z" fill="#F2591D"/>
<path d="M14.624 33.7621C14.8645 33.8506 15.1312 33.8612 15.3777 33.7919C13.963 33.1646 12.6403 32.2273 11.7676 30.9148C10.8948 29.6023 10.5218 27.8824 11.0074 26.3701C10.9919 27.1029 11.212 27.8389 11.6247 28.4345C11.1651 27.1214 11.3662 25.638 11.8891 24.3505C12.4117 23.0629 13.2326 21.9334 14.0452 20.8186C14.4678 20.2385 14.898 19.6507 15.457 19.2117C15.8934 18.869 16.3977 18.6264 16.9192 18.4528C18.6384 17.8805 20.5371 18.0569 22.2322 18.7017C22.7051 18.8816 23.1681 19.0984 23.5821 19.3952C24.0211 19.71 24.3983 20.1101 24.7287 20.5444C26.3545 22.6822 26.7933 25.5189 27.0379 28.2283C27.237 30.4313 27.3374 32.7033 26.6769 34.8074C26.5519 35.2056 26.3911 35.6093 26.0938 35.8929C25.7962 36.1767 25.3293 36.3079 24.9777 36.1012C24.6986 35.9373 24.5549 35.6125 24.4032 35.3198C24.1857 34.8999 23.9179 34.5077 23.6082 34.1552C23.514 34.0479 23.412 33.9416 23.2828 33.8856C22.8637 33.7037 22.4445 34.1089 22.1188 34.4369C21.1075 35.4545 19.7056 36.0432 18.2958 36.0423C19.2148 35.7037 20.0483 35.1193 20.6933 34.3614C19.7054 34.8297 18.6245 35.1289 17.5393 35.0742C16.4542 35.0194 15.3645 34.5853 14.624 33.7621Z" fill="#F2591D"/>
<path d="M40.549 26.4329C40.549 30.4329 37.4184 33.6753 33.5565 33.6753C29.6947 33.6753 26.564 30.4329 26.564 26.4329C26.564 22.4331 29.6947 19.1904 33.5565 19.1904C37.4184 19.1904 40.549 22.4331 40.549 26.4329Z" fill="#523B1A"/>
<path d="M39.6134 26.6686C39.6134 30.2923 36.7771 33.23 33.2783 33.23C29.7797 33.23 26.9434 30.2923 26.9434 26.6686C26.9434 23.0448 29.7797 20.1071 33.2783 20.1071C36.7771 20.1071 39.6134 23.0448 39.6134 26.6686Z" fill="#D1B86C"/>
<path d="M39.6134 26.6686C39.6134 30.2923 36.7771 33.23 33.2783 33.23C29.7797 33.23 26.9434 30.2923 26.9434 26.6686C26.9434 23.0448 29.7797 20.1071 33.2783 20.1071C36.7771 20.1071 39.6134 23.0448 39.6134 26.6686Z" fill="#D1B86C"/>
<path d="M39.0064 26.6688C39.0064 29.9452 36.4419 32.6016 33.2783 32.6016C30.1148 32.6016 27.5503 29.9452 27.5503 26.6688C27.5503 23.3922 30.1148 20.736 33.2783 20.736C36.4419 20.736 39.0064 23.3922 39.0064 26.6688Z" fill="#F3ED99"/>
<path d="M36.0222 26.6688C36.0222 28.2383 34.7938 29.5107 33.2783 29.5107C31.763 29.5107 30.5344 28.2383 30.5344 26.6688C30.5344 25.0991 31.763 23.8267 33.2783 23.8267C34.7938 23.8267 36.0222 25.0991 36.0222 26.6688Z" fill="#D4C18D"/>
<path d="M35.2636 26.6688C35.2636 27.8043 34.3747 28.7249 33.2783 28.7249C32.1819 28.7249 31.2932 27.8043 31.2932 26.6688C31.2932 25.533 32.1819 24.6125 33.2783 24.6125C34.3747 24.6125 35.2636 25.533 35.2636 26.6688Z" fill="#2E2227"/>
<path d="M33.2785 26.0662C33.2785 26.3989 33.0182 26.6687 32.697 26.6687C32.3757 26.6687 32.1152 26.3989 32.1152 26.0662C32.1152 25.7335 32.3757 25.4636 32.697 25.4636C33.0182 25.4636 33.2785 25.7335 33.2785 26.0662Z" fill="white"/>
<path d="M31.6323 22.2563C32.1039 22.724 31.8363 23.8061 31.0345 24.6734C30.2329 25.5407 29.2007 25.8647 28.7289 25.397C28.2573 24.9293 28.5249 23.8471 29.3267 22.9799C30.1283 22.1124 31.1605 21.7886 31.6323 22.2563Z" fill="white"/>
<path d="M34.5565 31.5286C31.5358 31.5286 28.936 29.663 27.772 26.9839C27.8412 29.1277 29.103 31.1317 31.1468 31.9874C32.9573 32.7453 34.9317 32.414 36.3934 31.2914C35.8058 31.4461 35.1903 31.5286 34.5565 31.5286Z" fill="#D4C18D"/>
<path d="M11.9976 26.4329C11.9976 30.4329 15.1281 33.6753 18.9901 33.6753C22.8518 33.6753 25.9826 30.4329 25.9826 26.4329C25.9826 22.4331 22.8518 19.1904 18.9901 19.1904C15.1281 19.1904 11.9976 22.4331 11.9976 26.4329Z" fill="#523B1A"/>
<path d="M12.9331 26.6686C12.9331 30.2923 15.7694 33.23 19.268 33.23C22.7668 33.23 25.6032 30.2923 25.6032 26.6686C25.6032 23.0448 22.7668 20.1071 19.268 20.1071C15.7694 20.1071 12.9331 23.0448 12.9331 26.6686Z" fill="#D1B86C"/>
<path d="M12.9331 26.6686C12.9331 30.2923 15.7694 33.23 19.268 33.23C22.7668 33.23 25.6032 30.2923 25.6032 26.6686C25.6032 23.0448 22.7668 20.1071 19.268 20.1071C15.7694 20.1071 12.9331 23.0448 12.9331 26.6686Z" fill="#D1B86C"/>
<path d="M13.54 26.6688C13.54 29.9452 16.1047 32.6016 19.2681 32.6016C22.4316 32.6016 24.9961 29.9452 24.9961 26.6688C24.9961 23.3922 22.4316 20.736 19.2681 20.736C16.1047 20.736 13.54 23.3922 13.54 26.6688Z" fill="#F3ED99"/>
<path d="M16.5242 26.6688C16.5242 28.2383 17.7527 29.5107 19.268 29.5107C20.7835 29.5107 22.0121 28.2383 22.0121 26.6688C22.0121 25.0991 20.7835 23.8267 19.268 23.8267C17.7527 23.8267 16.5242 25.0991 16.5242 26.6688Z" fill="#D4C18D"/>
<path d="M17.283 26.6688C17.283 27.8043 18.1717 28.7249 19.2681 28.7249C20.3647 28.7249 21.2534 27.8043 21.2534 26.6688C21.2534 25.533 20.3647 24.6125 19.2681 24.6125C18.1717 24.6125 17.283 25.533 17.283 26.6688Z" fill="#2E2227"/>
<path d="M19.2681 26.0662C19.2681 26.3989 19.5286 26.6687 19.8498 26.6687C20.171 26.6687 20.4315 26.3989 20.4315 26.0662C20.4315 25.7335 20.171 25.4636 19.8498 25.4636C19.5286 25.4636 19.2681 25.7335 19.2681 26.0662Z" fill="white"/>
<path d="M17.6048 22.2563C18.0764 22.724 17.8088 23.8061 17.0072 24.6734C16.2054 25.5407 15.1732 25.8647 14.7016 25.397C14.2299 24.9293 14.4976 23.8471 15.2992 22.9799C16.1009 22.1124 17.1332 21.7886 17.6048 22.2563Z" fill="white"/>
<path d="M17.9902 31.5286C21.0108 31.5286 23.6106 29.663 24.7747 26.9839C24.7054 29.1277 23.4436 31.1317 21.3998 31.9874C19.5892 32.7453 17.6148 32.414 16.1531 31.2914C16.7406 31.4461 17.3561 31.5286 17.9902 31.5286Z" fill="#D4C18D"/>
<path d="M27.4095 27.3645C27.2345 27.1657 27.0305 26.9871 26.7917 26.9253C26.56 26.8655 26.292 26.9406 26.1485 27.1585C26.0058 26.9403 25.738 26.8645 25.5061 26.9238C25.2673 26.9848 25.0627 27.1631 24.8872 27.3615C23.9538 28.4167 23.6971 30.0847 23.91 31.5783C24.1229 33.072 24.7391 34.4402 25.3466 35.779C25.3914 35.8779 25.7712 36.4906 26.1447 36.4912C26.5184 36.4916 26.8861 35.8796 26.9312 35.7811C27.5417 34.4436 28.161 33.0768 28.3774 31.5837C28.5934 30.0906 28.3406 28.4219 27.4095 27.3645Z" fill="#2D1615"/>
<path d="M25.4333 27.1856C25.2586 27.2184 25.1288 27.3736 25.0233 27.5266C24.2729 28.6129 24.0303 30.03 24.1227 31.3787C24.2252 32.8734 24.7183 34.3351 25.5314 35.5532C25.6721 35.7643 25.8768 35.9914 26.1135 35.9382C26.3847 35.877 26.4657 35.5097 26.4907 35.2133C26.6976 32.7613 26.8507 30.2279 26.1235 27.8931C26.0683 27.7158 26.0059 27.5362 25.8929 27.3942C25.7797 27.2522 25.6047 27.1533 25.4333 27.1856Z" fill="#EE8B40"/>
<path d="M26.6444 27.1839C26.4067 27.243 26.2949 27.5197 26.2244 27.7621C25.5019 30.247 25.3936 32.9209 25.9126 35.4598C25.9492 35.6391 26.0129 35.8467 26.1811 35.9039C26.3919 35.9756 26.5842 35.7598 26.7029 35.5655C27.782 33.8006 28.2706 31.6562 28.0671 29.5778C27.9867 28.7572 27.7661 27.8856 27.1499 27.3633C27.007 27.2421 26.8241 27.1394 26.6444 27.1839Z" fill="#F2591D"/>
<path d="M26.7029 31.9225C26.7029 33.9344 26.4284 35.5654 26.0898 35.5654C25.7511 35.5654 25.4766 33.9344 25.4766 31.9225C25.4766 29.9106 25.7511 28.2796 26.0898 28.2796C26.4284 28.2796 26.7029 29.9106 26.7029 31.9225Z" fill="#F3DE3E"/>
<path d="M26.1713 30.7106C26.3077 30.6668 26.3622 30.499 26.3828 30.3526C26.4479 29.8904 26.3706 29.4078 26.1646 28.9924C25.8343 29.3232 25.7021 29.8356 25.7783 30.305C25.7956 30.4125 25.8248 30.5218 25.8917 30.6058C25.9584 30.69 26.0707 30.7429 26.1713 30.7106Z" fill="white"/>
<path d="M26.2834 31.8732C26.2125 31.593 26.1414 31.3127 26.0703 31.0325C25.9195 31.3169 25.8512 31.6477 25.8765 31.9712C25.8834 32.0607 25.8985 32.153 25.9478 32.227C25.9968 32.301 26.0878 32.3518 26.1713 32.3277C26.2524 32.3041 26.3042 32.2172 26.3153 32.1309C26.3264 32.0444 26.3049 31.9574 26.2834 31.8732Z" fill="white"/>
<path d="M19.3367 55.5357C18.9881 55.2782 18.4959 55.4532 18.1455 55.7081C17.3485 56.288 16.8409 57.2238 16.5967 58.2002C16.3524 59.1768 16.3486 60.1998 16.3934 61.2075C16.4001 61.3582 16.4258 61.5381 16.5582 61.601C16.7361 61.6858 16.9115 61.4853 17.0125 61.3116C17.5461 60.3926 18.0799 59.4738 18.6135 58.5548C18.8988 58.0637 19.1847 57.5712 19.4177 57.0512C19.5294 56.8014 19.6304 56.5389 19.6401 56.2636C19.6496 55.9885 19.5531 55.6956 19.3367 55.5357Z" fill="#EDA263"/>
<path d="M18.9341 55.6096C18.7332 55.6096 18.4862 55.7053 18.2567 55.8722C17.5649 56.3756 17.0418 57.2204 16.7842 58.2504C16.5392 59.2304 16.5445 60.2463 16.5868 61.1981C16.5957 61.3958 16.6375 61.4179 16.6391 61.4186L16.6446 61.4203C16.6692 61.4203 16.754 61.3669 16.8462 61.2079L18.4474 58.4511C18.7263 57.9711 19.0135 57.4762 19.2419 56.9666C19.3431 56.7404 19.4379 56.4978 19.4463 56.2563C19.4528 56.071 19.3977 55.8275 19.224 55.6989C19.144 55.6398 19.0464 55.6096 18.9341 55.6096ZM16.6446 61.8218C16.587 61.8218 16.5308 61.8089 16.4774 61.7834C16.2198 61.6605 16.2052 61.338 16.1998 61.2168C16.1582 60.2804 16.1503 59.1839 16.409 58.1498C16.6898 57.0274 17.2668 56.102 18.0339 55.5437C18.2064 55.4185 18.5526 55.2081 18.9341 55.2081C19.1287 55.2081 19.302 55.2633 19.4492 55.3722C19.6993 55.5571 19.8464 55.9013 19.8336 56.2706C19.8225 56.5835 19.7117 56.8711 19.5935 57.1356C19.3564 57.6647 19.0636 58.169 18.7806 58.6566L17.1784 61.4149C17.0903 61.5667 16.9036 61.8218 16.6446 61.8218Z" fill="#292625"/>
<path d="M18.7259 57.2791C18.7697 57.047 18.804 56.8068 18.7562 56.5757C18.6707 57.0045 18.3938 57.388 18.021 57.594C18.099 57.9113 18.1072 58.2558 17.9878 58.5591C17.8686 58.8622 17.6071 59.1154 17.2945 59.1639C17.3384 59.7253 17.2294 60.2987 16.9829 60.8008C17.437 59.9719 17.8913 59.1429 18.3456 58.314C18.4295 58.1611 18.5136 58.0075 18.5766 57.8442C18.6466 57.6626 18.6897 57.4709 18.7259 57.2791Z" fill="#DC7029"/>
<path d="M20.6156 55.5357C20.9643 55.2782 21.4564 55.4532 21.8068 55.7081C22.6038 56.288 23.1114 57.2238 23.3556 58.2002C23.5999 59.1768 23.6038 60.1998 23.5589 61.2075C23.5524 61.3582 23.5265 61.5381 23.3941 61.601C23.2164 61.6858 23.0408 61.4853 22.9398 61.3116C22.4062 60.3926 21.8724 59.4738 21.3388 58.5548C21.0535 58.0637 20.7676 57.5712 20.5346 57.0512C20.4229 56.8014 20.3221 56.5389 20.3124 56.2636C20.3028 55.9885 20.3992 55.6956 20.6156 55.5357Z" fill="#EDA263"/>
<path d="M21.0182 55.6096C20.9061 55.6096 20.8085 55.6398 20.7281 55.6989C20.5546 55.8275 20.4995 56.071 20.5061 56.2563C20.5145 56.4978 20.6094 56.7404 20.7106 56.9666C20.94 57.4791 21.2273 57.9732 21.5049 58.4511L23.1059 61.2079C23.1984 61.3669 23.2833 61.4203 23.3079 61.4203C23.3085 61.4203 23.3097 61.4203 23.3134 61.4186C23.315 61.4179 23.3566 61.3958 23.3655 61.1979C23.4078 60.2463 23.4133 59.2304 23.1681 58.2504C22.9103 57.2202 22.3873 56.3754 21.6954 55.8722C21.4661 55.7053 21.2193 55.6096 21.0182 55.6096ZM23.3079 61.8218C23.0491 61.8218 22.862 61.5667 22.7738 61.4149L21.1728 58.6581C20.8898 58.1711 20.5972 57.6675 20.3591 57.1356C20.2406 56.8711 20.1298 56.5835 20.1187 56.2706C20.1059 55.9013 20.2532 55.5571 20.503 55.3722C20.6503 55.2633 20.8237 55.2081 21.0182 55.2081C21.4001 55.2081 21.7459 55.4185 21.9184 55.5437C22.6854 56.1018 23.2625 57.0272 23.5435 58.1498C23.8022 59.1839 23.7943 60.2804 23.7526 61.2166C23.7473 61.338 23.7327 61.6605 23.4753 61.7834C23.4217 61.8089 23.3654 61.8218 23.3079 61.8218Z" fill="#292625"/>
<path d="M22.0064 57.4331C21.9719 57.7984 22.0319 58.1729 22.1785 58.5071C22.2302 58.6253 22.2946 58.7408 22.3892 58.8262C22.4838 58.9115 22.6133 58.9629 22.7363 58.9374C22.6782 59.2756 22.7786 59.6207 22.9017 59.9398C22.9817 60.147 23.0716 60.35 23.1711 60.5479C23.1064 60.518 23.0597 60.4585 23.0158 60.4008C22.7881 60.1013 22.5693 59.7946 22.3506 59.4878C22.2518 59.3492 22.153 59.2106 22.054 59.072C21.9929 58.9863 21.9318 58.9008 21.8731 58.8133C21.464 58.2034 21.1756 57.5073 21.0309 56.7799C20.9877 56.5633 20.9609 56.3232 21.0719 56.1343C21.2981 56.6304 21.5495 57.1555 22.0064 57.4331Z" fill="#DC7029"/>
<path d="M21.2035 57.7353C21.2035 59.2334 20.6395 62.0159 19.9438 62.0159C19.2481 62.0159 18.6841 59.2334 18.6841 57.7353C18.6841 56.2374 19.2481 55.0229 19.9438 55.0229C20.6395 55.0229 21.2035 56.2374 21.2035 57.7353Z" fill="#EDA263"/>
<path d="M19.9436 55.2238C19.4395 55.2238 18.8778 56.2551 18.8778 57.7353C18.8778 59.4129 19.5053 61.8151 19.9436 61.8151C20.382 61.8151 21.0095 59.4129 21.0095 57.7353C21.0095 56.2551 20.4478 55.2238 19.9436 55.2238ZM19.9436 62.2166C18.9996 62.2166 18.4902 59.0359 18.4902 57.7353C18.4902 56.1018 19.1287 54.8221 19.9436 54.8221C20.7587 54.8221 21.3973 56.1018 21.3973 57.7353C21.3973 59.0359 20.8877 62.2166 19.9436 62.2166Z" fill="#292625"/>
<path d="M17.6598 56.8726C17.6668 56.9693 17.728 57.052 17.7922 57.1228C17.8474 57.1838 17.9152 57.2442 17.996 57.2453C18.1233 57.2472 18.2038 57.109 18.2574 56.9895C18.3265 56.835 18.3967 56.677 18.415 56.5078C18.4332 56.3386 18.3905 56.153 18.266 56.0418C18.0977 56.2025 17.9404 56.3753 17.7956 56.5588C17.7238 56.6498 17.6515 56.7554 17.6598 56.8726Z" fill="#F3ED99"/>
<path d="M17.4373 57.3343C17.3828 57.3451 17.3481 57.3993 17.3213 57.4495C17.0803 57.9019 16.9715 58.4289 17.0127 58.9438C17.0171 58.9994 17.0313 59.0656 17.0823 59.0832C17.1443 59.1045 17.1981 59.0356 17.2298 58.9763C17.3554 58.7416 17.4812 58.5071 17.6068 58.2724C17.6763 58.1429 17.7477 58.0048 17.7414 57.8568C17.7352 57.7088 17.5776 57.3066 17.4373 57.3343Z" fill="#F3ED99"/>
<path d="M16.8538 60.5998C16.9548 60.3579 17.0151 60.0977 17.0313 59.8345C17.037 59.7429 17.0368 59.6478 17.0022 59.5632C16.9675 59.4786 16.891 59.4066 16.8022 59.4051C16.7274 59.648 16.6849 59.9017 16.6766 60.1565C16.6713 60.3181 16.6838 60.4922 16.7819 60.6179C16.79 60.6283 16.7998 60.6389 16.8127 60.6398C16.8328 60.6412 16.8457 60.6189 16.8538 60.5998Z" fill="#F3ED99"/>
<path d="M19.2028 57.7431C19.2354 57.8567 19.2976 57.9772 19.4078 58.0091C19.516 58.0403 19.6321 57.97 19.6928 57.8724C19.7535 57.7748 19.771 57.6558 19.7848 57.5407C19.8596 56.9238 19.8755 56.2992 19.8321 55.6789C19.8275 55.6128 19.8007 55.5261 19.7369 55.5305C19.7041 55.5327 19.6791 55.5607 19.6585 55.5873C19.3623 55.9693 19.2337 56.4627 19.1747 56.9487C19.1424 57.2134 19.1295 57.487 19.2028 57.7431Z" fill="#F3ED99"/>
<path d="M19.4815 58.2529C19.4361 58.2631 19.3926 58.2892 19.3678 58.33C19.353 58.3541 19.3454 58.3821 19.339 58.4098C19.2544 58.7705 19.3239 59.1502 19.4236 59.5063C19.4484 59.5951 19.4768 59.6866 19.5379 59.7539C19.5725 59.792 19.6219 59.822 19.6715 59.8124C19.7461 59.7979 19.7789 59.708 19.7955 59.6313C19.8547 59.3596 19.8793 59.0801 19.872 58.8016C19.8686 58.6713 19.8567 58.5362 19.794 58.423C19.7313 58.3101 19.6046 58.2255 19.4815 58.2529Z" fill="#F3ED99"/>
<path d="M22.1314 56.5161C21.9657 56.3234 21.7872 56.133 21.5621 56.0222C21.5313 56.0069 21.4957 55.9931 21.4636 56.0052C21.439 56.1506 21.4809 56.3011 21.5519 56.4291C21.6228 56.5569 21.721 56.6659 21.8182 56.7735C21.8995 56.8636 21.9808 56.9535 22.0621 57.0433C22.1336 57.1225 22.2239 57.2086 22.3269 57.1904C22.3916 57.0834 22.3852 56.9427 22.3391 56.8258C22.2931 56.7087 22.2125 56.6106 22.1314 56.5161Z" fill="#F3ED99"/>
<path d="M22.7892 58.1054C22.8367 57.885 22.7288 57.6617 22.6045 57.4761C22.5693 57.4234 22.509 57.3656 22.4545 57.3958C22.3587 57.6135 22.3626 57.8752 22.4643 58.0897C22.4878 58.1394 22.5175 58.1877 22.5615 58.2191C22.6052 58.2504 22.6659 58.2615 22.7124 58.2344C22.756 58.2087 22.7782 58.1562 22.7892 58.1054Z" fill="#F3ED99"/>
<path d="M19.9016 61.4971C20.1286 61.4929 20.2633 61.238 20.3401 61.0167C20.7639 59.7941 20.9021 58.4665 20.7393 57.1785C20.6596 56.5479 20.4771 55.8751 19.9838 55.4963C20.124 56.8509 20.1773 58.215 20.1432 59.5768C20.137 59.8264 20.1277 60.0758 20.1147 60.3251C20.0941 60.7244 20.0613 61.1328 19.9016 61.4971Z" fill="#DC7029"/>
<path d="M29.3766 55.5357C29.028 55.2782 28.536 55.4532 28.1854 55.7081C27.3885 56.288 26.881 57.2238 26.6367 58.2002C26.3924 59.1768 26.3886 60.1998 26.4334 61.2075C26.44 61.3582 26.4659 61.5381 26.5982 61.601C26.776 61.6858 26.9516 61.4853 27.0525 61.3116C27.5862 60.3926 28.12 59.4738 28.6536 58.5548C28.9389 58.0637 29.2247 57.5712 29.4575 57.0512C29.5695 56.8014 29.6703 56.5389 29.6799 56.2636C29.6896 55.9885 29.5931 55.6956 29.3766 55.5357Z" fill="#EDA263"/>
<path d="M28.9744 55.6096C28.7732 55.6096 28.5263 55.7053 28.297 55.8722C27.6049 56.3756 27.0821 57.2202 26.8245 58.2504C26.5793 59.2298 26.5846 60.2461 26.6269 61.1981C26.6356 61.3958 26.6774 61.4179 26.6792 61.4186L26.6845 61.4203C26.7091 61.4203 26.794 61.3669 26.8863 61.2079L28.4875 58.4511C28.7655 57.9725 29.053 57.4776 29.2816 56.9666C29.383 56.7408 29.4778 56.4983 29.4863 56.2561C29.4929 56.071 29.438 55.8275 29.2641 55.6989C29.1841 55.6398 29.0865 55.6096 28.9744 55.6096ZM26.6845 61.8218C26.627 61.8218 26.5707 61.8089 26.5173 61.7834C26.2597 61.6605 26.2451 61.338 26.2398 61.2168C26.1981 60.2802 26.1906 59.1836 26.4491 58.1498C26.7299 57.0272 27.3071 56.1018 28.074 55.5437C28.2463 55.4185 28.5923 55.2081 28.9744 55.2081C29.1688 55.2081 29.3421 55.2633 29.4893 55.3722C29.7394 55.5571 29.8867 55.9013 29.8737 56.2706C29.8626 56.5843 29.7516 56.8716 29.6333 57.1356C29.3959 57.666 29.1029 58.1704 28.8196 58.6581L27.2186 61.4149C27.1302 61.5667 26.9433 61.8218 26.6845 61.8218Z" fill="#292625"/>
<path d="M28.7659 57.2791C28.8097 57.047 28.8439 56.8068 28.796 56.5757C28.7107 57.0045 28.4338 57.388 28.0609 57.594C28.1388 57.9113 28.1472 58.2558 28.0278 58.5591C27.9085 58.8622 27.6471 59.1154 27.3345 59.1639C27.3784 59.7253 27.2692 60.2987 27.0227 60.8008C27.477 59.9719 27.9313 59.1429 28.3856 58.314C28.4695 58.1611 28.5535 58.0075 28.6164 57.8442C28.6866 57.6626 28.7296 57.4709 28.7659 57.2791Z" fill="#DC7029"/>
<path d="M30.6556 55.5357C31.0041 55.2782 31.4964 55.4532 31.8468 55.7081C32.6438 56.288 33.1513 57.2238 33.3956 58.2002C33.6399 59.1768 33.6437 60.1998 33.5989 61.2075C33.5921 61.3582 33.5664 61.5381 33.4341 61.601C33.2562 61.6858 33.0808 61.4853 32.9798 61.3116C32.4462 60.3926 31.9124 59.4738 31.3788 58.5548C31.0935 58.0637 30.8074 57.5712 30.5746 57.0512C30.4629 56.8014 30.3619 56.5389 30.3522 56.2636C30.3426 55.9885 30.4392 55.6956 30.6556 55.5357Z" fill="#EDA263"/>
<path d="M31.0578 55.6096C30.9457 55.6096 30.8482 55.6398 30.7679 55.6989C30.5942 55.8275 30.5393 56.071 30.5459 56.2563C30.5543 56.4978 30.6491 56.7404 30.7504 56.9666C30.9787 57.4762 31.2658 57.9712 31.5436 58.4496L33.1458 61.2079C33.2382 61.3669 33.323 61.4203 33.3476 61.4203C33.3481 61.4203 33.3496 61.4203 33.353 61.4186C33.3547 61.4177 33.3964 61.3956 33.4052 61.1983C33.4477 60.2463 33.4529 59.2304 33.2077 58.2504C32.9501 57.2202 32.4273 56.3756 31.7353 55.8722C31.5057 55.7053 31.2589 55.6096 31.0578 55.6096ZM33.3476 61.8218C33.0889 61.8218 32.902 61.5667 32.8136 61.4149L31.2124 58.6581C30.9284 58.169 30.6358 57.6647 30.3988 57.1356C30.2805 56.8711 30.1694 56.5835 30.1585 56.2706C30.1456 55.9013 30.2929 55.5571 30.543 55.3722C30.6901 55.2633 30.8635 55.2081 31.0578 55.2081C31.4396 55.2081 31.7856 55.4185 31.958 55.5437C32.7252 56.1018 33.3024 57.0272 33.5831 58.1498C33.8418 59.1839 33.834 60.2804 33.7922 61.2166C33.7871 61.3378 33.7729 61.6605 33.5149 61.7834C33.4613 61.8089 33.405 61.8218 33.3476 61.8218Z" fill="#292625"/>
<path d="M32.0464 57.4331C32.012 57.7984 32.0718 58.1729 32.2185 58.5071C32.2703 58.6253 32.3347 58.7408 32.4293 58.8262C32.5239 58.9115 32.6533 58.9629 32.7764 58.9374C32.7182 59.2756 32.8187 59.6207 32.9417 59.9398C33.0216 60.147 33.1117 60.35 33.2112 60.5479C33.1465 60.518 33.0998 60.4585 33.0559 60.4008C32.8282 60.1013 32.6094 59.7946 32.3906 59.4878C32.2918 59.3492 32.1928 59.2106 32.094 59.072C32.033 58.9863 31.9719 58.9008 31.9132 58.8133C31.5041 58.2034 31.2157 57.5073 31.0707 56.7799C31.0277 56.5633 31.0009 56.3232 31.1119 56.1343C31.3382 56.6304 31.5896 57.1555 32.0464 57.4331Z" fill="#DC7029"/>
<path d="M31.2436 57.7353C31.2436 59.2334 30.6795 62.0159 29.9839 62.0159C29.288 62.0159 28.7241 59.2334 28.7241 57.7353C28.7241 56.2374 29.288 55.0229 29.9839 55.0229C30.6795 55.0229 31.2436 56.2374 31.2436 57.7353Z" fill="#EDA263"/>
<path d="M29.9837 55.2238C29.4795 55.2238 28.9176 56.2551 28.9176 57.7353C28.9176 59.4129 29.5453 61.8151 29.9837 61.8151C30.422 61.8151 31.0497 59.4129 31.0497 57.7353C31.0497 56.2551 30.4878 55.2238 29.9837 55.2238ZM29.9837 62.2166C29.0396 62.2166 28.53 59.0359 28.53 57.7353C28.53 56.1018 29.1686 54.8221 29.9837 54.8221C30.7986 54.8221 31.4372 56.1018 31.4372 57.7353C31.4372 59.0359 30.9277 62.2166 29.9837 62.2166Z" fill="#292625"/>
<path d="M27.6996 56.8726C27.7066 56.9693 27.7678 57.052 27.8318 57.1228C27.8872 57.1838 27.9549 57.2442 28.0358 57.2453C28.1629 57.2472 28.2436 57.109 28.2972 56.9895C28.3663 56.835 28.4365 56.677 28.4547 56.5078C28.473 56.3386 28.4303 56.153 28.3058 56.0418C28.1374 56.2025 27.9802 56.3753 27.8355 56.5588C27.7636 56.6498 27.6913 56.7554 27.6996 56.8726Z" fill="#F3ED99"/>
<path d="M27.4771 57.3343C27.4227 57.3451 27.3881 57.3993 27.3613 57.4495C27.1201 57.9019 27.0113 58.4289 27.0525 58.9438C27.057 58.9994 27.0713 59.0656 27.1223 59.0832C27.1843 59.1045 27.2381 59.0356 27.2698 58.9763C27.3954 58.7416 27.521 58.5071 27.6468 58.2724C27.7161 58.1429 27.7875 58.0048 27.7813 57.8568C27.7751 57.7088 27.6176 57.3066 27.4771 57.3343Z" fill="#F3ED99"/>
<path d="M26.8936 60.5998C26.9946 60.3579 27.0551 60.0977 27.0714 59.8345C27.077 59.7429 27.0766 59.6478 27.0422 59.5632C27.0075 59.4786 26.9308 59.4066 26.8422 59.4051C26.7674 59.648 26.725 59.9017 26.7166 60.1565C26.7113 60.3181 26.7239 60.4922 26.8218 60.6179C26.83 60.6283 26.8398 60.6389 26.8526 60.6398C26.8726 60.6412 26.8858 60.6189 26.8936 60.5998Z" fill="#F3ED99"/>
<path d="M29.2428 57.7431C29.2752 57.8567 29.3376 57.9772 29.4479 58.0091C29.5558 58.0403 29.6721 57.97 29.7328 57.8724C29.7935 57.7748 29.8111 57.6558 29.8249 57.5407C29.8997 56.9238 29.9155 56.2992 29.8721 55.6789C29.8674 55.6128 29.8408 55.5261 29.7768 55.5305C29.7441 55.5327 29.719 55.5607 29.6986 55.5873C29.4023 55.9693 29.2736 56.4627 29.2147 56.9487C29.1824 57.2134 29.1695 57.487 29.2428 57.7431Z" fill="#F3ED99"/>
<path d="M29.5214 58.2529C29.476 58.2631 29.4325 58.2892 29.4077 58.33C29.3929 58.3541 29.3852 58.3821 29.3787 58.4098C29.2943 58.7705 29.3636 59.1502 29.4635 59.5063C29.4883 59.5951 29.5167 59.6866 29.5778 59.7539C29.6122 59.792 29.6618 59.822 29.7114 59.8124C29.786 59.7979 29.8188 59.708 29.8354 59.6313C29.8944 59.3596 29.9192 59.0801 29.9117 58.8016C29.9083 58.6713 29.8966 58.5362 29.8339 58.423C29.7712 58.3101 29.6445 58.2255 29.5214 58.2529Z" fill="#F3ED99"/>
<path d="M32.1712 56.5161C32.0055 56.3234 31.827 56.133 31.6019 56.0222C31.5709 56.0069 31.5355 55.9931 31.5034 56.0052C31.4788 56.1506 31.5208 56.3011 31.5917 56.4291C31.6626 56.5569 31.7607 56.6659 31.858 56.7735C31.9393 56.8636 32.0206 56.9535 32.1019 57.0433C32.1734 57.1225 32.2635 57.2086 32.3666 57.1904C32.4314 57.0834 32.4248 56.9427 32.3789 56.8258C32.3329 56.7087 32.2523 56.6106 32.1712 56.5161Z" fill="#F3ED99"/>
<path d="M32.829 58.1054C32.8765 57.885 32.7686 57.6617 32.6443 57.4761C32.6089 57.4234 32.5488 57.3656 32.4943 57.3958C32.3985 57.6135 32.4024 57.8752 32.5041 58.0897C32.5276 58.1394 32.5573 58.1877 32.6011 58.2191C32.645 58.2504 32.7057 58.2615 32.752 58.2344C32.7958 58.2087 32.8178 58.1562 32.829 58.1054Z" fill="#F3ED99"/>
<path d="M29.9414 61.4971C30.1684 61.4929 30.3031 61.238 30.3798 61.0167C30.8037 59.7941 30.9419 58.4665 30.7791 57.1785C30.6994 56.5479 30.5168 55.8751 30.0236 55.4963C30.1636 56.8509 30.2171 58.215 30.183 59.5768C30.1768 59.8264 30.1675 60.0758 30.1545 60.3251C30.1337 60.7244 30.1011 61.1328 29.9414 61.4971Z" fill="#DC7029"/>
<path d="M25.3782 10.6387C26.363 10.5217 27.3478 10.4048 28.3326 10.2879C28.2899 9.40215 27.9412 8.53546 27.364 7.88063C28.1707 7.45257 28.6711 6.47561 28.5608 5.54378C28.4505 4.61195 27.7374 3.78907 26.8546 3.57532C26.0753 3.38669 25.2493 3.64745 24.5623 4.07305C24.1007 4.3593 23.6727 4.73185 23.4169 5.22203C23.1719 5.69163 23.1006 6.25544 23.2206 6.77451C23.3068 7.148 23.5064 7.51413 23.8344 7.69294C24.2509 7.92009 24.7661 7.8002 25.2175 7.9386C25.0319 8.66783 24.9153 9.41574 24.8695 10.1682C24.8613 10.3026 24.8608 10.4535 24.9499 10.5517C25.0535 10.6657 25.2279 10.6565 25.3782 10.6387Z" fill="white"/>
<path d="M23.8487 6.24432C23.9537 6.34119 24.1036 6.36762 24.2443 6.36422C24.4808 6.35837 24.7152 6.27831 24.9086 6.13707C25.0271 6.05059 25.132 5.93919 25.1923 5.80267C25.2526 5.66615 25.2645 5.50263 25.2043 5.36611C25.121 5.17729 24.9125 5.07099 24.7121 5.06948C24.5116 5.06797 24.3194 5.15501 24.1502 5.26623C23.988 5.37291 23.8352 5.50999 23.7599 5.69315C23.6846 5.87612 23.705 6.11215 23.8487 6.24432Z" fill="#2E2227"/>
<path d="M27.8145 5.129C27.7326 4.91299 27.5334 4.77477 27.3688 4.61748C27.271 4.52402 27.1724 4.41431 27.0408 4.39429C26.9212 4.37617 26.8051 4.43735 26.6988 4.49664C26.5672 4.5699 26.4339 4.64448 26.3249 4.75022C26.2159 4.85615 26.1322 4.99871 26.1265 5.15336C26.1194 5.34595 26.2325 5.52212 26.3654 5.65694C26.5356 5.82952 26.7507 5.96076 26.9861 5.99852C27.2213 6.03648 27.4763 5.97303 27.6501 5.8046C27.824 5.63599 27.9013 5.35842 27.8145 5.129Z" fill="#2E2227"/>
<path d="M25.8596 9.78597C25.8849 9.23442 25.9104 8.68307 25.9358 8.13171C25.8545 8.13284 25.7732 8.13397 25.6919 8.1351C25.6554 8.69326 25.6187 9.25142 25.5823 9.80957C25.6747 9.80164 25.7672 9.7939 25.8596 9.78597Z" fill="#2E2227"/>
<path d="M26.282 8.03967C26.2991 8.58461 26.3494 9.12842 26.4326 9.66675C26.5524 9.65712 26.6721 9.64749 26.7921 9.63805C26.6891 9.07876 26.5859 8.51965 26.4829 7.96055C26.416 7.98699 26.3491 8.01323 26.282 8.03967Z" fill="#2E2227"/>
<path d="M27.1557 8.10339C27.1349 8.02559 27.1134 7.94251 27.0551 7.88888C26.9967 7.83544 26.8885 7.83318 26.8533 7.90513C26.9617 8.5052 27.1218 9.09545 27.3311 9.66626C27.4766 9.57997 27.6474 9.53994 27.8146 9.55297C27.5179 9.11301 27.2943 8.62057 27.1557 8.10339Z" fill="#2E2227"/>
<path d="M25.7615 6.19975C25.5579 6.43861 25.4423 6.75621 25.4436 7.07475C25.4438 7.13083 25.4476 7.18823 25.4682 7.24015C25.4886 7.29227 25.528 7.33872 25.58 7.35496C25.6319 7.37101 25.6895 7.35458 25.7348 7.32343C25.78 7.29227 25.8148 7.2479 25.8478 7.20314C25.8926 7.14234 25.9355 7.0789 25.9914 7.02924C26.0476 6.97939 26.1198 6.94389 26.1934 6.95069C26.2634 6.9573 26.3247 7.00035 26.3909 7.02528C26.4572 7.05001 26.544 7.05002 26.5841 6.99016C26.6155 6.94333 26.6051 6.8797 26.5896 6.82494C26.5115 6.54945 26.3329 6.30587 26.0975 6.15405C26.0385 6.1161 25.9696 6.08249 25.9016 6.09779C25.8449 6.11044 25.8 6.15481 25.7615 6.19975Z" fill="#2E2227"/>
<path d="M25.8178 14.5508C25.8145 14.7598 25.8345 14.9715 25.7948 15.1763C25.7551 15.3814 25.64 15.5865 25.451 15.6597C25.3569 15.6962 25.2473 15.6956 25.1591 15.6456C25.0493 15.5832 24.9876 15.4535 24.9719 15.3249C24.956 15.1962 24.9795 15.0663 25.0031 14.9388C24.8082 14.9435 24.6051 14.9014 24.4514 14.7775C24.2977 14.6535 24.2057 14.4356 24.2631 14.2426C24.3205 14.0498 24.5509 13.9205 24.7256 14.0098C24.8306 14.0636 24.9084 14.183 25.0253 14.1901C25.1053 14.1952 25.1773 14.1446 25.2422 14.0959C26.0958 13.4581 28.6313 11.4124 29.4433 10.7185C29.3886 10.5884 29.3399 10.45 29.3499 10.3083C29.3601 10.1669 29.4436 10.0221 29.576 9.98508C29.7206 9.94486 29.8739 10.0466 29.9475 10.1816C30.0214 10.3168 30.0341 10.4771 30.0453 10.6318C30.1406 10.5483 30.316 10.6239 30.3258 10.7528C30.5302 10.7685 30.7318 10.8182 30.9211 10.8994C30.8737 10.9992 30.8795 11.1157 30.8664 11.2262C30.8534 11.3367 30.8095 11.4579 30.7097 11.4992C30.6237 11.5349 30.5271 11.4987 30.441 11.4626C30.2793 11.3948 30.104 11.3259 29.9346 11.3693C29.8316 11.3958 29.7428 11.4613 29.6569 11.5255C28.9372 12.064 26.5227 13.9919 25.8178 14.5508Z" fill="white"/>
<path d="M27.8084 14.7243C27.8349 14.9314 27.8385 15.144 27.9007 15.3428C27.963 15.5417 28.0999 15.7318 28.2959 15.782C28.3935 15.8071 28.5023 15.7934 28.5843 15.7331C28.6864 15.6582 28.7335 15.522 28.7347 15.3923C28.7362 15.2626 28.6983 15.1363 28.6609 15.0126C28.855 14.9939 29.0519 14.928 29.1909 14.7864C29.3298 14.6449 29.397 14.4176 29.3185 14.2328C29.2401 14.0481 28.9969 13.9471 28.8332 14.0566C28.7349 14.1225 28.6707 14.2505 28.5555 14.2715C28.4766 14.286 28.3993 14.2443 28.3295 14.2039C27.4106 13.6718 24.6648 11.942 23.7811 11.3496C23.821 11.2139 23.8539 11.0706 23.8282 10.931C23.8025 10.7917 23.7033 10.6578 23.5678 10.637C23.4196 10.6142 23.2787 10.7335 23.2205 10.8765C23.1622 11.0194 23.1673 11.1805 23.1733 11.3353C23.0694 11.2637 22.9035 11.3596 22.9081 11.489C22.707 11.5288 22.5121 11.6023 22.3333 11.7056C22.3914 11.799 22.3987 11.9155 22.4239 12.0237C22.449 12.1317 22.5061 12.2471 22.6098 12.2762C22.6993 12.3013 22.7912 12.2539 22.8725 12.2078C23.0258 12.1212 23.1923 12.0317 23.3655 12.0547C23.4707 12.0687 23.566 12.1232 23.6586 12.1769C24.4334 12.6259 27.0458 14.2531 27.8084 14.7243Z" fill="white"/>
<path d="M18.7242 16.8831C18.1559 16.4568 17.3788 16.4515 16.7031 16.6473C16.0275 16.8431 15.4141 17.2149 14.7692 17.5015C12.5947 18.4683 10.0209 18.4198 7.88156 17.3718C8.04108 17.9424 8.39238 18.4536 8.86109 18.7961C8.08337 18.7107 7.30548 18.6254 6.52777 18.54C6.32048 18.5172 6.09187 18.4998 5.92251 18.6259C5.56501 18.8922 5.79417 19.4934 6.12669 19.7925C6.45904 20.0918 6.90331 20.3607 6.9498 20.8142C6.81763 20.5572 6.41145 20.5684 6.23972 20.7989C6.06799 21.0295 6.1112 21.3771 6.2771 21.6122C6.44299 21.8474 6.70497 21.9889 6.96822 22.0908C8.22922 22.5789 9.66287 22.3148 10.8878 21.7366C12.1129 21.1584 13.1837 20.2898 14.2991 19.5089C15.4142 18.7279 16.6211 18.0151 17.9534 17.8163L18.7242 16.8831Z" fill="#F2591D"/>
<path d="M8.3929 22.5457C7.86385 22.5457 7.36123 22.4573 6.90055 22.279C6.66865 22.1893 6.33558 22.0351 6.12065 21.7311C5.9223 21.4499 5.84682 20.9977 6.08619 20.6765C6.1932 20.533 6.3622 20.4424 6.54505 20.4258C6.44879 20.3213 6.32939 20.2222 6.2067 20.1206C6.13578 20.0621 6.06559 20.0036 5.99942 19.9443C5.76315 19.7317 5.53235 19.3487 5.54894 18.9732C5.55842 18.7592 5.64848 18.5829 5.80945 18.463C6.04791 18.2857 6.34871 18.3183 6.54797 18.3406L8.28535 18.5311C8.01316 18.215 7.80989 17.8376 7.6954 17.4277C7.67425 17.3518 7.69814 17.2704 7.75593 17.219C7.8139 17.168 7.89576 17.1569 7.96449 17.1905C10.0537 18.2141 12.5688 18.2611 14.693 17.3174C14.9005 17.2249 15.1099 17.1212 15.3125 17.0207C15.7393 16.8093 16.1804 16.5906 16.6508 16.4541C17.4901 16.2105 18.2875 16.3078 18.8379 16.7209C18.9245 16.7859 18.9438 16.9114 18.8809 17.0013C18.8186 17.0906 18.6972 17.1112 18.6104 17.0459C18.1568 16.7054 17.4806 16.6306 16.7553 16.8406C16.3174 16.9677 15.9105 17.1693 15.4798 17.3827C15.2737 17.4849 15.0605 17.5906 14.8458 17.6862C12.7673 18.6097 10.3304 18.6272 8.23466 17.7509C8.40767 18.1 8.66108 18.4042 8.97282 18.632C9.04483 18.6848 9.07363 18.7813 9.04263 18.8669C9.01146 18.9526 8.92742 19.007 8.84065 18.9956L6.50714 18.7396C6.32137 18.7192 6.14471 18.7077 6.03551 18.7891C5.9717 18.8366 5.94016 18.9008 5.93615 18.9919C5.92722 19.1911 6.06376 19.4703 6.25373 19.641C6.31589 19.6971 6.38225 19.7519 6.4488 19.8072C6.75233 20.0587 7.09652 20.3438 7.14246 20.7932C7.15213 20.8887 7.09525 20.9781 7.00665 21.0064C6.91751 21.0345 6.82234 20.9935 6.77877 20.9086C6.74577 20.8446 6.67322 20.8291 6.63256 20.8257C6.53758 20.8166 6.44187 20.8561 6.39301 20.9216C6.27178 21.0846 6.32356 21.3381 6.43349 21.4941C6.55016 21.6593 6.74158 21.789 7.036 21.9029C8.11069 22.3189 9.4499 22.195 10.8075 21.5542C11.7351 21.1163 12.5939 20.4937 13.4247 19.8916C13.679 19.7071 13.9337 19.5224 14.1904 19.3427C15.2381 18.6091 16.5011 17.8304 17.9258 17.6178C18.0319 17.6018 18.13 17.6782 18.1451 17.7879C18.1605 17.8976 18.087 17.9994 17.9811 18.0151C16.634 18.2162 15.4186 18.9673 14.4075 19.6754C14.1525 19.8538 13.8996 20.0372 13.6468 20.2205C12.802 20.833 11.9282 21.4664 10.9681 21.9195C10.0874 22.3351 9.20908 22.5457 8.3929 22.5457Z" fill="#292625"/>
<path d="M34.0581 16.8831C34.6262 16.4568 35.4033 16.4515 36.079 16.6473C36.7546 16.8431 37.3682 17.2149 38.0129 17.5015C40.1874 18.4683 42.7614 18.4198 44.9005 17.3718C44.7412 17.9424 44.3897 18.4536 43.921 18.7961C44.6989 18.7107 45.4766 18.6254 46.2543 18.54C46.4618 18.5172 46.6902 18.4998 46.8596 18.6259C47.2173 18.8922 46.9879 19.4934 46.6556 19.7925C46.3231 20.0918 45.8788 20.3607 45.8323 20.8142C45.9645 20.5572 46.3706 20.5684 46.5424 20.7989C46.7143 21.0295 46.6711 21.3771 46.505 21.6122C46.3391 21.8474 46.0773 21.9889 45.8139 22.0908C44.5529 22.5789 43.1192 22.3148 41.8943 21.7366C40.6694 21.1584 39.5984 20.2898 38.4832 19.5089C37.368 18.7279 36.161 18.0151 34.8287 17.8163L34.0581 16.8831Z" fill="#F2591D"/>
<path d="M44.3892 22.5457C43.573 22.5457 42.6949 22.3353 41.814 21.9193C40.8541 21.4663 39.9803 20.833 39.1353 20.2205C38.8825 20.0372 38.6298 19.8538 38.3746 19.6754C37.3635 18.9673 36.1481 18.2162 34.8012 18.0151C34.6951 17.9994 34.6216 17.8976 34.637 17.7879C34.6523 17.6782 34.7509 17.6018 34.8563 17.6178C36.2812 17.8304 37.544 18.6091 38.5919 19.3427C38.8486 19.5224 39.1031 19.7071 39.3576 19.8916C40.1882 20.4937 41.047 21.1163 41.9746 21.554C43.3322 22.195 44.6716 22.3187 45.7461 21.9029C46.0405 21.789 46.2321 21.6593 46.3488 21.4939C46.4587 21.3381 46.5103 21.0846 46.3891 20.9216C46.3401 20.8561 46.2431 20.8166 46.1497 20.8257C46.1091 20.8291 46.0363 20.8446 46.0035 20.9086C45.9599 20.9935 45.8646 21.0345 45.7756 21.0064C45.6868 20.9781 45.63 20.8887 45.6398 20.7932C45.6858 20.3438 46.0298 20.0587 46.3333 19.8072C46.4 19.7519 46.4664 19.6971 46.5286 19.641C46.7185 19.4703 46.8551 19.1911 46.8461 18.9919C46.8419 18.9008 46.8106 18.8366 46.7466 18.7891C46.6374 18.7077 46.4613 18.7192 46.2748 18.7396L43.9415 18.9956C43.8551 19.0071 43.7708 18.9526 43.7396 18.8669C43.7087 18.7813 43.7373 18.6848 43.8095 18.632C44.1212 18.4042 44.3744 18.1 44.5474 17.7509C42.4511 18.6274 40.0148 18.6101 37.9365 17.6862C37.7216 17.5906 37.5084 17.4849 37.3023 17.3827C36.8716 17.1693 36.4649 16.9677 36.0267 16.8406C35.3016 16.6308 34.6255 16.7054 34.1717 17.0459C34.0851 17.1112 33.9637 17.091 33.9012 17.0013C33.8383 16.9114 33.8578 16.7859 33.9442 16.7209C34.4948 16.308 35.2922 16.2107 36.1311 16.4541C36.6017 16.5906 37.0428 16.8093 37.4696 17.0207C37.6723 17.1212 37.8816 17.2249 38.0893 17.3174C40.2133 18.2613 42.7286 18.2141 44.8178 17.1905C44.8863 17.1569 44.9682 17.168 45.0262 17.219C45.0842 17.2704 45.108 17.3518 45.0867 17.4277C44.9724 17.8376 44.7689 18.215 44.4968 18.5311L46.234 18.3406C46.433 18.3183 46.7344 18.2857 46.9726 18.463C47.1336 18.5829 47.2237 18.7592 47.2333 18.9732C47.2499 19.3487 47.019 19.7317 46.7827 19.9443C46.7167 20.0036 46.6463 20.0621 46.5754 20.1206C46.4529 20.2222 46.3333 20.3213 46.2371 20.4258C46.4199 20.4424 46.5891 20.533 46.6961 20.6765C46.9353 20.9977 46.8598 21.4499 46.6616 21.7309C46.4465 22.0351 46.1134 22.1893 45.8816 22.279C45.4211 22.4573 44.9182 22.5457 44.3892 22.5457Z" fill="#292625"/>
<path d="M7.85994 31.936C5.48286 36.5519 4.2379 41.7872 4.27345 47.0184C4.93029 45.4622 5.58714 43.9057 6.2438 42.3495C6.05439 44.3317 6.07918 46.3361 6.31763 48.3126C6.39366 48.9416 6.59783 49.6963 7.19215 49.8481C7.91681 50.0334 8.46701 49.1391 8.56345 48.3725C8.65971 47.6057 8.60046 46.7267 9.12733 46.1791C9.16397 48.3493 10.1714 50.4816 11.8038 51.843C11.9532 50.0692 12.1027 48.2956 12.2522 46.5219C12.4114 47.046 12.5782 47.5853 12.9191 48.0062C13.2602 48.4272 13.8228 48.705 14.3285 48.5386C14.8477 48.3678 15.144 47.8036 15.3015 47.2634C16.0535 44.6837 14.8132 41.9669 13.4921 39.6456C12.1711 37.3242 10.6766 34.8559 10.8909 32.1705L7.85994 31.936Z" fill="#F2591D"/>
<path d="M11.8038 52.0437C11.7604 52.0437 11.7172 52.0284 11.6822 51.9991C10.1597 50.7297 9.17383 48.8298 8.97129 46.8224C8.8641 47.1385 8.83456 47.5082 8.80375 47.8911C8.79008 48.0624 8.7764 48.2329 8.75544 48.3981C8.69254 48.9012 8.42383 49.5537 7.96624 49.8777C7.71193 50.0582 7.4279 50.1153 7.14551 50.043C6.5882 49.9004 6.24491 49.3266 6.1255 48.3375C5.93262 46.7408 5.87848 45.1236 5.96307 43.5158L4.45103 47.0989C4.41457 47.1855 4.3245 47.2342 4.23463 47.215C4.14493 47.1961 4.0804 47.1147 4.07986 47.0199C4.04394 41.7448 5.29182 36.4962 7.68914 31.8417C7.73927 31.7435 7.85704 31.7071 7.95111 31.759C8.04573 31.8111 8.08128 31.9327 8.03096 32.0306C5.81249 36.3385 4.59067 41.1614 4.47564 46.0386L6.06625 42.269C6.10436 42.1787 6.20043 42.1306 6.29286 42.1553C6.38493 42.1801 6.44599 42.2709 6.4367 42.3691C6.24874 44.3358 6.27335 46.3271 6.50998 48.2877C6.60752 49.0953 6.85272 49.5545 7.23847 49.6532C7.41294 49.6976 7.58468 49.6619 7.74748 49.5464C8.0532 49.33 8.3097 48.8364 8.37132 48.3466C8.39119 48.1872 8.4045 48.0229 8.41763 47.8579C8.47031 47.2004 8.52482 46.5211 8.99007 46.0373C9.04512 45.9801 9.12753 45.9627 9.1999 45.9927C9.27191 46.023 9.31986 46.0949 9.32114 46.1755C9.35468 48.168 10.2163 50.1075 11.6433 51.438L12.0592 46.5044C12.0672 46.4091 12.1392 46.3328 12.2313 46.3224C12.3224 46.3124 12.4094 46.3702 12.4371 46.4616C12.5893 46.9627 12.7466 47.4808 13.0677 47.877C13.3344 48.2063 13.8241 48.4941 14.2696 48.3473C14.7391 48.1927 14.989 47.641 15.1159 47.2053C15.8484 44.6931 14.6217 42.0254 13.3253 39.7475L13.1397 39.4221C11.8362 37.1389 10.4883 34.7779 10.6979 32.1539C10.7067 32.0436 10.7982 31.9626 10.907 31.9703C11.0137 31.9796 11.093 32.0766 11.0842 32.1871C10.8848 34.6837 12.2008 36.9886 13.4733 39.2178L13.6593 39.5436C14.9983 41.8965 16.2626 44.6608 15.4869 47.3215C15.333 47.8494 15.0173 48.5224 14.387 48.7297C13.7676 48.9338 13.1293 48.5779 12.7707 48.1353C12.6019 47.9266 12.4732 47.6923 12.3686 47.4506L11.9968 51.8604C11.9905 51.9342 11.9456 51.9984 11.8798 52.0275C11.8554 52.0382 11.8295 52.0437 11.8038 52.0437Z" fill="#292625"/>
<path d="M44.0627 31.936C46.4398 36.5519 47.6848 41.7872 47.6501 47.0184C46.9924 45.4622 46.3355 43.9057 45.6789 42.3495C45.8683 44.3317 45.8435 46.3361 45.605 48.3126C45.529 48.9416 45.3248 49.6963 44.7305 49.8481C44.0058 50.0334 43.4556 49.1391 43.3592 48.3725C43.2629 47.6057 43.3222 46.7267 42.7953 46.1791C42.7587 48.3493 41.7513 50.4816 40.1189 51.843C39.9694 50.0692 39.8199 48.2956 39.6704 46.5219C39.5113 47.046 39.3445 47.5853 39.0036 48.0062C38.6625 48.4272 38.0999 48.705 37.5942 48.5386C37.075 48.3678 36.7787 47.8036 36.6212 47.2634C35.8692 44.6837 37.1094 41.9669 38.4306 39.6456C39.7516 37.3242 41.2461 34.8559 41.0317 32.1705L44.0627 31.936Z" fill="#F2591D"/>
<path d="M40.1189 52.0437C40.0934 52.0437 40.0675 52.0382 40.0429 52.0275C39.9771 51.9984 39.9323 51.9342 39.9261 51.8604L39.5542 47.4508C39.4495 47.6925 39.321 47.9266 39.152 48.1353C38.7932 48.5777 38.155 48.9338 37.5355 48.7297C36.9056 48.5226 36.5897 47.8496 36.4356 47.3215C35.6601 44.6604 36.9246 41.8965 38.2636 39.5436L38.449 39.2184C39.7219 36.989 41.0379 34.6839 40.8387 32.1871C40.8299 32.0766 40.9091 31.9796 41.0157 31.9703C41.1251 31.9622 41.2162 32.0436 41.225 32.1539C41.4343 34.7781 40.0863 37.1393 38.7826 39.4227L38.5976 39.7475C37.3011 42.0252 36.0745 44.6927 36.8068 47.2054C36.9339 47.641 37.1838 48.1929 37.6527 48.3473C38.0992 48.4935 38.5883 48.2061 38.855 47.877C39.1766 47.4805 39.3336 46.9627 39.4856 46.4618C39.5131 46.3702 39.6003 46.3126 39.6914 46.3224C39.7835 46.3328 39.8553 46.4091 39.8634 46.5044L40.2794 51.4378C41.7063 50.1073 42.568 48.168 42.6018 46.1755C42.6029 46.0949 42.6508 46.023 42.723 45.9927C42.7952 45.9627 42.8776 45.9801 42.9327 46.0373C43.3979 46.5211 43.4524 47.2004 43.5051 47.8577C43.5182 48.0228 43.5313 48.187 43.5514 48.3466C43.613 48.8366 43.8697 49.3302 44.1752 49.5464C44.3384 49.6621 44.5101 49.6976 44.684 49.6532C45.0702 49.5545 45.3152 49.0953 45.4127 48.2877C45.6492 46.3264 45.674 44.3353 45.486 42.3691C45.4765 42.2709 45.5376 42.1801 45.6298 42.1553C45.7225 42.1306 45.8182 42.1787 45.8563 42.269L47.4478 46.0386C47.3322 41.1614 46.1104 36.3385 43.8917 32.0306C43.8412 31.9327 43.877 31.8111 43.9714 31.759C44.0657 31.7069 44.1831 31.7435 44.2336 31.8417C46.6307 36.4962 47.878 41.7448 47.8434 47.0199C47.8416 47.1147 47.7778 47.1961 47.6884 47.215C47.5991 47.2344 47.508 47.1855 47.4715 47.0989L45.9596 43.5158C46.0442 45.1232 45.9901 46.7403 45.7972 48.3375C45.678 49.3266 45.3347 49.9004 44.777 50.043C44.4948 50.1149 44.211 50.0581 43.9565 49.8779C43.4989 49.5539 43.2303 48.9013 43.1671 48.3983C43.1463 48.2327 43.1326 48.0624 43.119 47.891C43.0882 47.5082 43.0584 47.1387 42.9514 46.8226C42.7485 48.8298 41.7628 50.7297 40.2405 51.9991C40.2055 52.0284 40.1625 52.0435 40.1189 52.0437Z" fill="#292625"/>
<path d="M37.2267 44.0475C37.0635 44.8562 36.9856 45.7008 37.1663 46.5056C37.209 46.6957 37.268 46.887 37.3843 47.0407C37.5005 47.1942 37.6837 47.3051 37.8713 47.2866C38.0917 47.265 38.2674 47.0715 38.3447 46.8568C38.422 46.6419 38.4208 46.4066 38.4229 46.1774C38.4321 45.202 38.5203 44.2273 38.6866 43.2669C38.7566 42.8627 38.8337 42.4165 38.6289 42.0647C38.5575 41.9416 38.4271 41.8302 38.2922 41.8642C38.2202 41.8823 38.1633 41.9384 38.1127 41.9947C37.6124 42.5494 37.3765 43.3043 37.2267 44.0475Z" fill="#F79074"/>
<path d="M41.2279 36.8082C41.334 36.3583 41.4035 35.8641 41.2075 35.448C40.5855 36.9495 39.9146 38.4294 39.1965 39.8841C38.9433 40.3973 38.6779 40.9328 38.6768 41.5089C38.6764 41.7446 38.8117 42.0491 39.0337 41.998C39.1617 41.9685 39.2333 41.8309 39.2884 41.7076C39.5163 41.197 39.7442 40.6864 39.972 40.176C40.4604 39.0818 40.9517 37.9791 41.2279 36.8082Z" fill="#F79074"/>
<path d="M12.1872 40.0483C12.3536 40.1195 12.5414 39.95 12.5684 39.7655C12.5954 39.5812 12.5142 39.4003 12.4353 39.2326C11.8939 38.0833 11.3524 36.9339 10.811 35.7846C10.6848 35.5166 10.5585 35.2485 10.4498 34.9724C10.2327 34.4203 10.0876 33.838 10.0198 33.2461C9.92077 35.6093 10.6401 38.0008 12.0178 39.8875C12.0647 39.9515 12.1155 40.0177 12.1872 40.0483Z" fill="#F79074"/>
<path d="M13.855 47.2223C13.9496 47.3345 14.088 47.428 14.2295 47.4008C14.3724 47.3734 14.4677 47.2348 14.5357 47.1017C15.0225 46.1461 14.8639 44.9831 14.6036 43.9368C14.3638 42.9731 14.045 42.0214 13.544 41.1723C13.3271 40.8047 13.0394 40.4319 12.6316 40.3458C12.5302 40.3243 12.4166 40.3247 12.3326 40.3872C12.1548 40.5196 12.2246 40.8054 12.316 41.0114C12.6234 41.7048 12.9743 42.3815 13.1927 43.1102C13.462 44.0084 13.5216 44.9589 13.538 45.8993C13.5462 46.3638 13.5595 46.8728 13.855 47.2223Z" fill="#F79074"/>
<path d="M11.523 12.557C11.2761 12.8793 11.0652 13.2292 10.8342 13.564C10.3362 14.2858 9.72763 14.9511 8.96122 15.3476C8.31695 15.6811 7.57589 15.8102 6.8618 15.7137C6.6671 15.6875 6.41551 15.5298 6.50885 15.3508C8.65203 14.1401 10.5672 12.4981 12.1158 10.5434C12.4436 10.1299 12.7721 9.68806 13.2379 9.45675C13.3107 10.0672 13.0458 10.672 12.6914 11.1654C12.3372 11.659 11.8918 12.0749 11.523 12.557Z" fill="#60827F"/>
<path d="M15.2572 7.84848C15.1518 7.94232 15.0372 8.03767 14.8997 8.05863C14.7624 8.07959 14.6002 7.99386 14.5856 7.85073C14.5776 7.77218 14.614 7.69666 14.6503 7.62699C14.9363 7.07733 15.2745 6.55674 15.6583 6.07506C15.9908 5.65795 16.4471 5.23594 16.9628 5.32053C17.0148 5.79844 16.7284 6.24047 16.4316 6.61037C16.0741 7.0558 15.6809 7.47046 15.2572 7.84848Z" fill="#60827F"/>
<path d="M17.3414 41.6147C17.2712 41.657 16.8322 41.0116 16.3609 40.1731C15.8897 39.3347 15.5644 38.6206 15.6348 38.5783C15.705 38.5358 16.144 39.1812 16.6153 40.0198C17.0865 40.8583 17.4116 41.5722 17.3414 41.6147Z" fill="#292625"/>
<path d="M18.633 41.7945C18.602 41.8189 18.5061 41.75 18.3876 41.603C18.2722 41.4548 18.1442 41.2224 18.06 40.9429C17.9811 40.662 17.9636 40.3948 17.9805 40.2052C18.0007 40.0151 18.044 39.9027 18.0828 39.9054C18.1249 39.9078 18.1559 40.0209 18.1883 40.1943C18.2241 40.368 18.2711 40.6017 18.3417 40.8549C18.418 41.1064 18.5037 41.3281 18.5666 41.4933C18.6323 41.6561 18.6669 41.7683 18.633 41.7945Z" fill="#292625"/>
<path d="M19.6722 43.209C19.5912 43.208 19.5306 42.7424 19.5368 42.169C19.543 41.5955 19.6139 41.1314 19.695 41.1323C19.7759 41.1333 19.8366 41.5989 19.8304 42.1724C19.824 42.7458 19.7533 43.2099 19.6722 43.209Z" fill="#292625"/>
<path d="M22.8475 44.6021C22.8238 44.6318 22.6999 44.5708 22.54 44.4133C22.3861 44.2519 22.2177 43.9777 22.1304 43.6376C22.0538 43.2947 22.0786 42.9709 22.1415 42.7536C22.2115 42.5368 22.2935 42.4229 22.3278 42.4375C22.3688 42.4535 22.3593 42.5895 22.3466 42.7902C22.3405 42.9941 22.3511 43.2683 22.416 43.564C22.4924 43.8567 22.6071 44.1042 22.7046 44.2815C22.8067 44.4526 22.8765 44.5681 22.8475 44.6021Z" fill="#292625"/>
<path d="M30.7563 43.5871C30.6761 43.5735 30.687 43.0756 30.7809 42.475C30.8748 41.8741 31.0161 41.3981 31.0963 41.4115C31.1765 41.4249 31.1654 41.9229 31.0715 42.5237C30.9776 43.1245 30.8365 43.6005 30.7563 43.5871Z" fill="#292625"/>
<path d="M33.5051 43.121C33.4227 43.0829 33.6165 42.4662 33.7979 41.6964C33.962 40.9224 34.0499 40.2804 34.1401 40.2836C34.2123 40.2842 34.2559 40.9577 34.0847 41.7653C33.8953 42.5683 33.5702 43.1535 33.5051 43.121Z" fill="#292625"/>
<path d="M35.6853 41.3257C35.6496 41.3013 35.7356 41.0963 35.8813 40.7773C36.0233 40.4554 36.2129 40.0122 36.3894 39.509C36.5584 39.003 36.6807 38.5351 36.7662 38.1924C36.847 37.8497 36.9049 37.6344 36.9476 37.6387C36.9859 37.6425 37.0012 37.8676 36.9711 38.2296C36.9368 38.5904 36.8424 39.0859 36.6668 39.6108C36.4838 40.1333 36.2559 40.5794 36.063 40.8821C35.8662 41.1829 35.7174 41.3478 35.6853 41.3257Z" fill="#292625"/>
<path d="M18.4158 49.5536C18.3429 49.5908 18.0944 49.2222 17.8609 48.7305C17.6276 48.2386 17.4974 47.8098 17.5703 47.7726C17.6432 47.7356 17.8917 48.1042 18.1251 48.5959C18.3586 49.0877 18.4888 49.5166 18.4158 49.5536Z" fill="#292625"/>
<path d="M20.0924 49.8186C20.0218 49.8604 19.8014 49.5983 19.6001 49.2333C19.3987 48.8683 19.2926 48.5386 19.3631 48.4969C19.4339 48.4552 19.6543 48.717 19.8555 49.082C20.057 49.447 20.1631 49.7769 20.0924 49.8186Z" fill="#292625"/>
<path d="M20.0049 53.8729C19.9686 53.9381 19.4732 53.7015 18.9927 53.2241C18.5245 52.7334 18.2888 52.2239 18.3512 52.1854C18.427 52.1354 18.7581 52.5446 19.1992 53.0068C19.6521 53.4568 20.0521 53.7936 20.0049 53.8729Z" fill="#292625"/>
<path d="M31.8492 55.1032C31.8215 55.0686 31.986 54.8777 32.2503 54.579C32.511 54.2756 32.8592 53.8507 33.2037 53.3496C33.5399 52.8422 33.8057 52.3577 33.9915 51.9999C34.1716 51.6402 34.2883 51.4147 34.3291 51.4298C34.3648 51.4427 34.3169 51.6961 34.1813 52.0884C34.0402 52.478 33.7937 52.9986 33.4449 53.5242C33.088 54.0439 32.7006 54.4623 32.3958 54.7333C32.0866 55.0001 31.8731 55.1336 31.8492 55.1032Z" fill="#292625"/>
<path d="M29.7926 54.6636C29.7283 54.6125 29.8871 54.2856 30.1476 53.9336C30.4081 53.5817 30.6715 53.3379 30.7361 53.3891C30.8004 53.4404 30.6416 53.7673 30.3811 54.1191C30.1206 54.471 29.8572 54.7148 29.7926 54.6636Z" fill="#292625"/>
<path d="M33.3192 48.4998C33.2415 48.4751 33.2601 48.1803 33.3608 47.8414C33.4612 47.5023 33.6058 47.2475 33.6834 47.2723C33.7611 47.297 33.7427 47.592 33.6421 47.9309C33.5414 48.2698 33.3971 48.5245 33.3192 48.4998Z" fill="#292625"/>
<path d="M35.3166 34.527C35.3338 34.5593 35.1504 34.7143 34.7969 34.8563C34.621 34.9287 34.4016 34.988 34.1533 35.0276C33.9047 35.0622 33.6268 35.0739 33.3377 35.0459C33.0488 35.0146 32.7786 34.9466 32.5412 34.862C32.3053 34.7727 32.1017 34.6698 31.9429 34.5631C31.6231 34.3518 31.4727 34.1626 31.4957 34.1345C31.5238 34.0977 31.7165 34.2223 32.0411 34.373C32.2027 34.45 32.401 34.5255 32.6242 34.5946C32.849 34.6586 33.0996 34.7134 33.3667 34.7427C33.6341 34.7682 33.8903 34.7657 34.1227 34.7485C34.3548 34.7262 34.5635 34.6924 34.7365 34.65C35.0835 34.5682 35.296 34.4851 35.3166 34.527Z" fill="#292625"/>
<path d="M34.4036 37.1681C34.4093 37.2076 34.3034 37.2616 34.118 37.2943C33.9329 37.3226 33.6686 37.3137 33.3915 37.2312C33.1166 37.1419 32.8912 36.9982 32.752 36.8692C32.6147 36.7361 32.5551 36.6304 32.5808 36.6007C32.609 36.5677 32.7148 36.6128 32.8675 36.6898C33.0236 36.7639 33.2342 36.86 33.4763 36.9393C33.7205 37.0114 33.9473 37.0514 34.1169 37.0788C34.2853 37.1017 34.3978 37.1243 34.4036 37.1681Z" fill="#292625"/>
<path d="M18.0065 34.1953C18.0151 34.2289 17.7082 34.3581 17.179 34.4109C17.047 34.4232 16.9017 34.4338 16.7457 34.4281C16.5889 34.4315 16.4228 34.4126 16.2476 34.396C15.8989 34.3492 15.5188 34.2621 15.1359 34.119C14.7549 33.971 14.4111 33.7818 14.1163 33.5831C13.9724 33.478 13.8343 33.3809 13.7172 33.2731C13.5947 33.1725 13.4908 33.0669 13.398 32.9689C13.0283 32.5731 12.8755 32.2688 12.903 32.2489C12.9408 32.2191 13.1502 32.4721 13.5393 32.8105C13.637 32.8945 13.7438 32.9861 13.8669 33.0735C13.9847 33.1679 14.1214 33.2523 14.2616 33.346C14.5493 33.5216 14.8772 33.6927 15.2376 33.8328C15.5999 33.9681 15.9566 34.0584 16.2855 34.1179C16.4509 34.1407 16.6079 34.1685 16.7566 34.1755C16.905 34.1917 17.0436 34.1938 17.1706 34.1955C17.6787 34.1993 17.9965 34.1473 18.0065 34.1953Z" fill="#292625"/>
<path d="M16.7188 35.4617C16.7254 35.5004 16.5425 35.5703 16.2328 35.6235C15.9232 35.6711 15.4855 35.6836 15.0101 35.6092C14.5359 35.5255 14.1239 35.3718 13.8444 35.2263C13.5664 35.0752 13.4138 34.9494 13.4319 34.9147C13.4517 34.8751 13.6359 34.9313 13.9221 35.0261C14.2109 35.116 14.6083 35.2287 15.0568 35.3082C15.5065 35.3783 15.9182 35.4002 16.2195 35.4085C16.5199 35.4111 16.7119 35.4175 16.7188 35.4617Z" fill="#292625"/>
</svg>
